<svg width="1743" height="55" viewBox="0 0 1743 55" fill="none" xmlns="http://www.w3.org/2000/svg">
<rect width="148" height="55" rx="27.5" fill="#F3F6FF"/>
<path d="M25.7119 33V21.64H32.6879V23.416H27.7759V26.04H30.0479C31.1039 26.04 31.9573 26.36 32.6079 27C33.2693 27.6293 33.5999 28.4773 33.5999 29.544C33.5999 30.568 33.2746 31.4 32.6239 32.04C31.9733 32.68 31.1306 33 30.0959 33H25.7119ZM27.7759 31.224H29.7279C30.2933 31.224 30.7306 31.0747 31.0399 30.776C31.3493 30.4773 31.5039 30.0667 31.5039 29.544C31.5039 29.0213 31.3439 28.6053 31.0239 28.296C30.7039 27.976 30.2613 27.816 29.6959 27.816H27.7759V31.224ZM34.2296 33L38.2136 21.64H40.3896L44.3736 33H42.2616L41.2856 30.088H37.3016L36.3416 33H34.2296ZM37.8136 28.408H40.7736L39.7656 25.368L39.3176 23.608H39.2856C39.1149 24.3547 38.9656 24.9413 38.8376 25.368L37.8136 28.408ZM44.7318 31.24C45.5851 31.1227 46.2038 30.5573 46.5878 29.544C46.9825 28.52 47.1798 26.92 47.1798 24.744V21.64H54.2038V33H52.1398V23.416H49.1478V24.776C49.1478 27.5707 48.8011 29.6507 48.1078 31.016C47.4145 32.3707 46.2891 33.0747 44.7318 33.128V31.24ZM55.8099 31.24C56.6633 31.1227 57.2819 30.5573 57.6659 29.544C58.0606 28.52 58.2579 26.92 58.2579 24.744V21.64H65.2819V33H63.2179V23.416H60.2259V24.776C60.2259 27.5707 59.8793 29.6507 59.1859 31.016C58.4926 32.3707 57.3673 33.0747 55.8099 33.128V31.24ZM77.2401 33V21.64H79.2881V33H77.2401ZM68.0401 33V21.64H70.1041V25.624H72.2161C73.2721 25.624 74.1254 25.9653 74.7761 26.648C75.4374 27.32 75.7681 28.216 75.7681 29.336C75.7681 30.424 75.4427 31.3093 74.7921 31.992C74.1414 32.664 73.2987 33 72.2641 33H68.0401ZM70.1041 31.224H71.8961C72.4614 31.224 72.8987 31.0587 73.2081 30.728C73.5174 30.3867 73.6721 29.9227 73.6721 29.336C73.6721 28.7493 73.5121 28.28 73.1921 27.928C72.8721 27.576 72.4294 27.4 71.8641 27.4H70.1041V31.224ZM86.0557 33V21.64H88.1197V26.456H93.3197V21.64H95.3677V33H93.3197V28.232H88.1197V33H86.0557ZM97.6862 33L98.6142 21.64H100.806L103.046 27.256L103.606 28.92H103.638C103.841 28.2587 104.028 27.704 104.198 27.256L106.438 21.64H108.63L109.558 33H107.494L107.03 26.648C107.009 26.424 106.998 26.168 106.998 25.88C106.998 25.5813 107.004 25.3413 107.014 25.16V24.888H106.982C106.737 25.624 106.529 26.2107 106.358 26.648L104.518 31.048H102.726L100.886 26.648L100.262 24.872H100.23C100.262 25.5547 100.257 26.1467 100.214 26.648L99.7502 33H97.6862ZM111.212 27.24C111.212 25.608 111.772 24.2373 112.892 23.128C114.022 22.008 115.42 21.448 117.084 21.448C118.748 21.448 120.14 22.008 121.26 23.128C122.39 24.2373 122.956 25.608 122.956 27.24C122.956 28.9147 122.39 30.328 121.26 31.48C120.14 32.6213 118.748 33.192 117.084 33.192C115.42 33.192 114.022 32.6213 112.892 31.48C111.772 30.328 111.212 28.9147 111.212 27.24ZM113.34 27.24C113.34 28.392 113.702 29.3573 114.428 30.136C115.153 30.9147 116.038 31.304 117.084 31.304C118.129 31.304 119.014 30.9147 119.74 30.136C120.465 29.3573 120.828 28.392 120.828 27.24C120.828 26.1413 120.465 25.2187 119.74 24.472C119.014 23.7147 118.129 23.336 117.084 23.336C116.038 23.336 115.153 23.7147 114.428 24.472C113.702 25.2187 113.34 26.1413 113.34 27.24Z" fill="#005DFF"/>
<rect x="158" width="460" height="55" rx="27.5" fill="#F3F6FF"/>
<path d="M183.244 32.408L184.156 30.856C184.636 31.2293 185.063 31.416 185.436 31.416C185.937 31.416 186.316 31.0853 186.572 30.424L182.124 21.64H184.396L186.812 26.712L187.452 28.216H187.484C187.623 27.7147 187.777 27.2187 187.948 26.728L189.772 21.64H191.932L188.428 30.616C188.289 30.968 188.145 31.2773 187.996 31.544C187.847 31.8107 187.655 32.0773 187.42 32.344C187.185 32.6107 186.908 32.8187 186.588 32.968C186.268 33.1173 185.911 33.192 185.516 33.192C184.748 33.192 183.991 32.9307 183.244 32.408ZM194.595 31.224H199.107V23.416H196.067V24.264C196.067 27.3147 195.576 29.6347 194.595 31.224ZM191.315 31.224H192.467C193.566 29.56 194.115 27.192 194.115 24.12V21.64H201.171V31.224H202.435V35.24H200.595V33H193.219V35.24H191.315V31.224ZM203.563 27.24C203.563 25.608 204.123 24.2373 205.243 23.128C206.374 22.008 207.771 21.448 209.435 21.448C211.099 21.448 212.491 22.008 213.611 23.128C214.742 24.2373 215.307 25.608 215.307 27.24C215.307 28.9147 214.742 30.328 213.611 31.48C212.491 32.6213 211.099 33.192 209.435 33.192C207.771 33.192 206.374 32.6213 205.243 31.48C204.123 30.328 203.563 28.9147 203.563 27.24ZM205.691 27.24C205.691 28.392 206.054 29.3573 206.779 30.136C207.505 30.9147 208.39 31.304 209.435 31.304C210.481 31.304 211.366 30.9147 212.091 30.136C212.817 29.3573 213.179 28.392 213.179 27.24C213.179 26.1413 212.817 25.2187 212.091 24.472C211.366 23.7147 210.481 23.336 209.435 23.336C208.39 23.336 207.505 23.7147 206.779 24.472C206.054 25.2187 205.691 26.1413 205.691 27.24ZM216.736 27.272C216.736 25.608 217.285 24.2213 218.384 23.112C219.482 22.0027 220.88 21.448 222.576 21.448C224.304 21.448 225.701 21.9653 226.768 23L225.776 24.536C225.36 24.184 224.869 23.896 224.304 23.672C223.749 23.448 223.205 23.336 222.672 23.336C221.477 23.336 220.544 23.7093 219.872 24.456C219.2 25.2027 218.864 26.1307 218.864 27.24C218.864 28.36 219.205 29.32 219.888 30.12C220.57 30.9093 221.504 31.304 222.688 31.304C223.904 31.304 225.002 30.824 225.984 29.864L227.072 31.352C225.866 32.5787 224.378 33.192 222.608 33.192C220.848 33.192 219.429 32.632 218.352 31.512C217.274 30.392 216.736 28.9787 216.736 27.272ZM231.421 33V23.416H227.693V21.64H237.197V23.416H233.469V33H231.421ZM237.735 27.24C237.735 25.608 238.295 24.2373 239.415 23.128C240.546 22.008 241.943 21.448 243.607 21.448C245.271 21.448 246.663 22.008 247.783 23.128C248.914 24.2373 249.479 25.608 249.479 27.24C249.479 28.9147 248.914 30.328 247.783 31.48C246.663 32.6213 245.271 33.192 243.607 33.192C241.943 33.192 240.546 32.6213 239.415 31.48C238.295 30.328 237.735 28.9147 237.735 27.24ZM239.863 27.24C239.863 28.392 240.226 29.3573 240.951 30.136C241.677 30.9147 242.562 31.304 243.607 31.304C244.653 31.304 245.538 30.9147 246.263 30.136C246.989 29.3573 247.351 28.392 247.351 27.24C247.351 26.1413 246.989 25.2187 246.263 24.472C245.538 23.7147 244.653 23.336 243.607 23.336C242.562 23.336 241.677 23.7147 240.951 24.472C240.226 25.2187 239.863 26.1413 239.863 27.24ZM251.564 33V21.64H255.612C256.668 21.64 257.516 21.9013 258.156 22.424C258.806 22.936 259.132 23.6507 259.132 24.568C259.132 25.1013 259.009 25.5813 258.764 26.008C258.518 26.4347 258.182 26.7653 257.756 27V27.032C258.353 27.2027 258.806 27.5387 259.116 28.04C259.436 28.5413 259.595 29.096 259.595 29.704C259.595 30.7813 259.222 31.6027 258.476 32.168C257.729 32.7227 256.796 33 255.676 33H251.564ZM253.628 26.28H255.628C256.065 26.28 256.406 26.1467 256.652 25.88C256.908 25.6027 257.036 25.2507 257.036 24.824C257.036 24.408 256.908 24.072 256.652 23.816C256.406 23.5493 256.054 23.416 255.596 23.416H253.628V26.28ZM253.628 31.224H255.836C256.348 31.224 256.748 31.0747 257.036 30.776C257.334 30.4667 257.484 30.0667 257.484 29.576C257.484 29.096 257.334 28.7067 257.036 28.408C256.748 28.0987 256.348 27.944 255.836 27.944H253.628V31.224ZM261.689 33V21.64H268.489V23.416H263.753V26.392H267.577V28.168H263.753V31.224H268.745V33H261.689ZM270.798 33V21.64H275.182C276.249 21.64 277.118 21.9813 277.79 22.664C278.462 23.3467 278.798 24.2373 278.798 25.336C278.798 26.4347 278.462 27.336 277.79 28.04C277.118 28.7333 276.249 29.08 275.182 29.08H272.862V33H270.798ZM272.862 27.288H274.798C275.395 27.288 275.859 27.112 276.19 26.76C276.531 26.408 276.702 25.9333 276.702 25.336C276.702 24.7493 276.531 24.2853 276.19 23.944C275.859 23.592 275.406 23.416 274.83 23.416H272.862V27.288ZM280.595 33V21.64H287.395V23.416H282.659V26.392H286.483V28.168H282.659V31.224H287.651V33H280.595ZM289.704 33V21.64H291.768V26.456H296.968V21.64H299.016V33H296.968V28.232H291.768V33H289.704ZM301.767 33V21.64H303.831V28.2L303.719 29.96H303.751C304.113 29.224 304.433 28.632 304.711 28.184L308.999 21.64H311.047V33H308.999V26.456L309.111 24.696H309.079C308.727 25.4213 308.412 26.008 308.135 26.456L303.815 33H301.767ZM313.814 33V21.64H320.614V23.416H315.878V26.392H319.702V28.168H315.878V31.224H320.87V33H313.814ZM326.251 27.24C326.251 25.608 326.811 24.2373 327.931 23.128C329.062 22.008 330.459 21.448 332.123 21.448C333.787 21.448 335.179 22.008 336.299 23.128C337.43 24.2373 337.995 25.608 337.995 27.24C337.995 28.9147 337.43 30.328 336.299 31.48C335.179 32.6213 333.787 33.192 332.123 33.192C330.459 33.192 329.062 32.6213 327.931 31.48C326.811 30.328 326.251 28.9147 326.251 27.24ZM328.379 27.24C328.379 28.392 328.742 29.3573 329.467 30.136C330.192 30.9147 331.078 31.304 332.123 31.304C333.168 31.304 334.054 30.9147 334.779 30.136C335.504 29.3573 335.867 28.392 335.867 27.24C335.867 26.1413 335.504 25.2187 334.779 24.472C334.054 23.7147 333.168 23.336 332.123 23.336C331.078 23.336 330.192 23.7147 329.467 24.472C328.742 25.2187 328.379 26.1413 328.379 27.24ZM344.079 33V21.64H353.279V33H351.215V23.416H346.143V33H344.079ZM355.36 27.24C355.36 25.608 355.92 24.2373 357.04 23.128C358.171 22.008 359.568 21.448 361.232 21.448C362.896 21.448 364.288 22.008 365.408 23.128C366.539 24.2373 367.104 25.608 367.104 27.24C367.104 28.9147 366.539 30.328 365.408 31.48C364.288 32.6213 362.896 33.192 361.232 33.192C359.568 33.192 358.171 32.6213 357.04 31.48C355.92 30.328 355.36 28.9147 355.36 27.24ZM357.488 27.24C357.488 28.392 357.851 29.3573 358.576 30.136C359.302 30.9147 360.187 31.304 361.232 31.304C362.278 31.304 363.163 30.9147 363.888 30.136C364.614 29.3573 364.976 28.392 364.976 27.24C364.976 26.1413 364.614 25.2187 363.888 24.472C363.163 23.7147 362.278 23.336 361.232 23.336C360.187 23.336 359.302 23.7147 358.576 24.472C357.851 25.2187 357.488 26.1413 357.488 27.24ZM369.189 33V21.64H373.237C374.293 21.64 375.141 21.9013 375.781 22.424C376.431 22.936 376.757 23.6507 376.757 24.568C376.757 25.1013 376.634 25.5813 376.389 26.008C376.143 26.4347 375.807 26.7653 375.381 27V27.032C375.978 27.2027 376.431 27.5387 376.741 28.04C377.061 28.5413 377.22 29.096 377.22 29.704C377.22 30.7813 376.847 31.6027 376.101 32.168C375.354 32.7227 374.421 33 373.301 33H369.189ZM371.253 26.28H373.253C373.69 26.28 374.031 26.1467 374.277 25.88C374.533 25.6027 374.661 25.2507 374.661 24.824C374.661 24.408 374.533 24.072 374.277 23.816C374.031 23.5493 373.679 23.416 373.221 23.416H371.253V26.28ZM371.253 31.224H373.461C373.973 31.224 374.373 31.0747 374.661 30.776C374.959 30.4667 375.109 30.0667 375.109 29.576C375.109 29.096 374.959 28.7067 374.661 28.408C374.373 28.0987 373.973 27.944 373.461 27.944H371.253V31.224ZM388.514 33V21.64H390.562V33H388.514ZM379.314 33V21.64H381.378V25.624H383.49C384.546 25.624 385.399 25.9653 386.05 26.648C386.711 27.32 387.042 28.216 387.042 29.336C387.042 30.424 386.716 31.3093 386.066 31.992C385.415 32.664 384.572 33 383.538 33H379.314ZM381.378 31.224H383.17C383.735 31.224 384.172 31.0587 384.482 30.728C384.791 30.3867 384.946 29.9227 384.946 29.336C384.946 28.7493 384.786 28.28 384.466 27.928C384.146 27.576 383.703 27.4 383.138 27.4H381.378V31.224ZM393.329 33V21.64H395.393V31.224H399.057V21.64H401.121V31.224H404.785V21.64H406.833V33H393.329ZM409.595 33V21.64H416.395V23.416H411.659V26.392H415.483V28.168H411.659V31.224H416.651V33H409.595ZM418.704 33V21.64H420.768V26.456H425.968V21.64H428.016V33H425.968V28.232H420.768V33H418.704ZM430.767 33V21.64H432.831V28.2L432.719 29.96H432.751C433.113 29.224 433.433 28.632 433.711 28.184L437.999 21.64H440.047V33H437.999V26.456L438.111 24.696H438.079C437.727 25.4213 437.412 26.008 437.135 26.456L432.815 33H430.767ZM442.814 33V21.64H444.878V28.2L444.766 29.96H444.798C445.16 29.224 445.48 28.632 445.758 28.184L450.046 21.64H452.094V33H450.046V26.456L450.158 24.696H450.126C449.774 25.4213 449.459 26.008 449.182 26.456L444.862 33H442.814ZM458.86 33V21.64H460.924V26.264H462.396L465.068 21.64H467.308L464.092 27.048V27.08L467.5 33H465.164L462.396 28.04H460.924V33H458.86ZM469.064 33V21.64H473.112C474.168 21.64 475.016 21.9013 475.656 22.424C476.306 22.936 476.632 23.6507 476.632 24.568C476.632 25.1013 476.509 25.5813 476.264 26.008C476.018 26.4347 475.682 26.7653 475.256 27V27.032C475.853 27.2027 476.306 27.5387 476.616 28.04C476.936 28.5413 477.095 29.096 477.095 29.704C477.095 30.7813 476.722 31.6027 475.976 32.168C475.229 32.7227 474.296 33 473.176 33H469.064ZM471.128 26.28H473.128C473.565 26.28 473.906 26.1467 474.152 25.88C474.408 25.6027 474.536 25.2507 474.536 24.824C474.536 24.408 474.408 24.072 474.152 23.816C473.906 23.5493 473.554 23.416 473.096 23.416H471.128V26.28ZM471.128 31.224H473.336C473.848 31.224 474.248 31.0747 474.536 30.776C474.834 30.4667 474.984 30.0667 474.984 29.576C474.984 29.096 474.834 28.7067 474.536 28.408C474.248 28.0987 473.848 27.944 473.336 27.944H471.128V31.224ZM477.816 33L481.799 21.64H483.976L487.96 33H485.848L484.872 30.088H480.888L479.928 33H477.816ZM481.4 28.408H484.36L483.352 25.368L482.904 23.608H482.872C482.701 24.3547 482.552 24.9413 482.424 25.368L481.4 28.408ZM488.318 31.24C489.171 31.1227 489.79 30.5573 490.174 29.544C490.568 28.52 490.766 26.92 490.766 24.744V21.64H497.79V33H495.726V23.416H492.734V24.776C492.734 27.5707 492.387 29.6507 491.694 31.016C491 32.3707 489.875 33.0747 488.318 33.128V31.24ZM500.548 33V21.64H502.612V28.2L502.5 29.96H502.532C502.895 29.224 503.215 28.632 503.492 28.184L507.78 21.64H509.828V33H507.78V26.456L507.892 24.696H507.86C507.508 25.4213 507.193 26.008 506.916 26.456L502.596 33H500.548ZM511.747 26.952C511.747 25.5653 512.227 24.4347 513.187 23.56C514.157 22.6853 515.411 22.248 516.947 22.248V21H519.011V22.248C520.547 22.248 521.795 22.6853 522.755 23.56C523.725 24.4347 524.211 25.5653 524.211 26.952C524.211 28.3707 523.731 29.528 522.771 30.424C521.811 31.3093 520.557 31.752 519.011 31.752V33.192H516.947V31.752C515.411 31.752 514.157 31.304 513.187 30.408C512.227 29.512 511.747 28.36 511.747 26.952ZM519.011 30.024C519.928 30.024 520.675 29.7413 521.251 29.176C521.827 28.6 522.115 27.8587 522.115 26.952C522.115 26.0667 521.827 25.352 521.251 24.808C520.675 24.2533 519.928 23.976 519.011 23.976V30.024ZM513.859 26.952C513.859 27.8587 514.141 28.6 514.707 29.176C515.283 29.7413 516.029 30.024 516.947 30.024V23.976C516.029 23.976 515.283 24.2533 514.707 24.808C514.141 25.352 513.859 26.0667 513.859 26.952ZM526.11 33V21.64H528.174V28.2L528.062 29.96H528.094C528.457 29.224 528.777 28.632 529.054 28.184L533.342 21.64H535.39V33H533.342V26.456L533.454 24.696H533.422C533.07 25.4213 532.756 26.008 532.478 26.456L528.158 33H526.11ZM538.157 33V21.64H540.221V26.264H541.693L544.365 21.64H546.605L543.389 27.048V27.08L546.797 33H544.461L541.693 28.04H540.221V33H538.157ZM547.112 33L551.096 21.64H553.272L557.256 33H555.144L554.168 30.088H550.184L549.224 33H547.112ZM550.696 28.408H553.656L552.648 25.368L552.2 23.608H552.168C551.998 24.3547 551.848 24.9413 551.72 25.368L550.696 28.408ZM558.767 33V21.64H560.831V31.224H565.743V21.64H567.807V31.224H569.151V35.24H567.311V33H558.767ZM571.11 33V21.64H573.174V28.2L573.062 29.96H573.094C573.457 29.224 573.777 28.632 574.054 28.184L578.342 21.64H580.39V33H578.342V26.456L578.454 24.696H578.422C578.07 25.4213 577.756 26.008 577.478 26.456L573.158 33H571.11ZM583.157 33V21.64H585.221V28.2L585.109 29.96H585.141C585.504 29.224 585.824 28.632 586.101 28.184L590.389 21.64H592.437V33H590.389V26.456L590.501 24.696H590.469C590.117 25.4213 589.803 26.008 589.525 26.456L585.205 33H583.157Z" fill="#666666"/>
<rect x="628" width="177" height="55" rx="27.5" fill="#F3F6FF"/>
<path d="M653.845 33V21.64H655.909V26.456H661.109V21.64H663.157V33H661.109V28.232H655.909V33H653.845ZM665.235 27.24C665.235 25.608 665.795 24.2373 666.915 23.128C668.046 22.008 669.443 21.448 671.107 21.448C672.771 21.448 674.163 22.008 675.283 23.128C676.414 24.2373 676.979 25.608 676.979 27.24C676.979 28.9147 676.414 30.328 675.283 31.48C674.163 32.6213 672.771 33.192 671.107 33.192C669.443 33.192 668.046 32.6213 666.915 31.48C665.795 30.328 665.235 28.9147 665.235 27.24ZM667.363 27.24C667.363 28.392 667.726 29.3573 668.451 30.136C669.177 30.9147 670.062 31.304 671.107 31.304C672.153 31.304 673.038 30.9147 673.763 30.136C674.489 29.3573 674.851 28.392 674.851 27.24C674.851 26.1413 674.489 25.2187 673.763 24.472C673.038 23.7147 672.153 23.336 671.107 23.336C670.062 23.336 669.177 23.7147 668.451 24.472C667.726 25.2187 667.363 26.1413 667.363 27.24ZM679.064 33V21.64H683.112C684.168 21.64 685.016 21.9013 685.656 22.424C686.306 22.936 686.632 23.6507 686.632 24.568C686.632 25.1013 686.509 25.5813 686.264 26.008C686.018 26.4347 685.682 26.7653 685.256 27V27.032C685.853 27.2027 686.306 27.5387 686.616 28.04C686.936 28.5413 687.095 29.096 687.095 29.704C687.095 30.7813 686.722 31.6027 685.976 32.168C685.229 32.7227 684.296 33 683.176 33H679.064ZM681.128 26.28H683.128C683.565 26.28 683.906 26.1467 684.152 25.88C684.408 25.6027 684.536 25.2507 684.536 24.824C684.536 24.408 684.408 24.072 684.152 23.816C683.906 23.5493 683.554 23.416 683.096 23.416H681.128V26.28ZM681.128 31.224H683.336C683.848 31.224 684.248 31.0747 684.536 30.776C684.834 30.4667 684.984 30.0667 684.984 29.576C684.984 29.096 684.834 28.7067 684.536 28.408C684.248 28.0987 683.848 27.944 683.336 27.944H681.128V31.224ZM698.389 33V21.64H700.437V33H698.389ZM689.189 33V21.64H691.253V25.624H693.365C694.421 25.624 695.274 25.9653 695.925 26.648C696.586 27.32 696.917 28.216 696.917 29.336C696.917 30.424 696.591 31.3093 695.941 31.992C695.29 32.664 694.447 33 693.413 33H689.189ZM691.253 31.224H693.045C693.61 31.224 694.047 31.0587 694.357 30.728C694.666 30.3867 694.821 29.9227 694.821 29.336C694.821 28.7493 694.661 28.28 694.341 27.928C694.021 27.576 693.578 27.4 693.013 27.4H691.253V31.224ZM703.204 33V21.64H710.004V23.416H705.268V26.392H709.092V28.168H705.268V31.224H710.26V33H703.204ZM715.29 31.576L716.41 30.2C716.719 30.5307 717.103 30.808 717.562 31.032C718.02 31.256 718.49 31.368 718.97 31.368C719.588 31.368 720.079 31.2133 720.442 30.904C720.804 30.5947 720.986 30.168 720.986 29.624C720.986 29.1333 720.82 28.7493 720.49 28.472C720.17 28.184 719.732 28.04 719.178 28.04H717.786V26.376H718.906C719.418 26.376 719.839 26.2267 720.17 25.928C720.5 25.6293 720.666 25.256 720.666 24.808C720.666 24.3493 720.516 23.976 720.218 23.688C719.919 23.3893 719.487 23.24 718.922 23.24C718.058 23.24 717.236 23.56 716.458 24.2L715.626 22.696C716.628 21.864 717.844 21.448 719.274 21.448C720.244 21.448 721.066 21.7253 721.738 22.28C722.42 22.8347 722.762 23.592 722.762 24.552C722.762 25.672 722.239 26.5147 721.194 27.08V27.112C721.78 27.2933 722.244 27.6133 722.586 28.072C722.927 28.5307 723.098 29.0907 723.098 29.752C723.098 30.7973 722.719 31.6347 721.962 32.264C721.215 32.8827 720.282 33.192 719.161 33.192C718.436 33.192 717.727 33.0533 717.034 32.776C716.351 32.488 715.77 32.088 715.29 31.576ZM725.189 33V21.64H727.253V26.456H732.453V21.64H734.501V33H732.453V28.232H727.253V33H725.189ZM736.003 33L739.987 21.64H742.163L746.147 33H744.035L743.059 30.088H739.075L738.115 33H736.003ZM739.587 28.408H742.547L741.539 25.368L741.091 23.608H741.059C740.888 24.3547 740.739 24.9413 740.611 25.368L739.587 28.408ZM747.657 33V21.64H749.721V26.456H754.921V21.64H756.969V33H754.921V28.232H749.721V33H747.657ZM759.72 33V21.64H761.784V28.2L761.672 29.96H761.704C762.066 29.224 762.386 28.632 762.664 28.184L766.952 21.64H769V33H766.952V26.456L767.064 24.696H767.032C766.68 25.4213 766.365 26.008 766.088 26.456L761.768 33H759.72ZM770.663 33L773.063 29L773.431 28.408V28.376C772.759 28.0773 772.252 27.64 771.911 27.064C771.58 26.488 771.415 25.8267 771.415 25.08C771.415 24.312 771.585 23.6613 771.927 23.128C772.279 22.584 772.743 22.1893 773.319 21.944C773.788 21.7413 774.508 21.64 775.479 21.64H779.159V33H777.095V28.76H775.431L772.967 33H770.663ZM775.303 27.032H777.095V23.416H775.639C774.999 23.416 774.524 23.512 774.215 23.704C773.745 23.992 773.511 24.4773 773.511 25.16C773.511 25.7573 773.671 26.2213 773.991 26.552C774.311 26.872 774.748 27.032 775.303 27.032Z" fill="#005DFF"/>
<rect x="815" width="328" height="55" rx="27.5" fill="#F3F6FF"/>
<path d="M842.806 31.224H847.318V23.416H844.278V24.264C844.278 27.3147 843.787 29.6347 842.806 31.224ZM839.526 31.224H840.678C841.777 29.56 842.326 27.192 842.326 24.12V21.64H849.382V31.224H850.646V35.24H848.806V33H841.43V35.24H839.526V31.224ZM851.774 27.24C851.774 25.608 852.334 24.2373 853.454 23.128C854.585 22.008 855.982 21.448 857.646 21.448C859.31 21.448 860.702 22.008 861.822 23.128C862.953 24.2373 863.518 25.608 863.518 27.24C863.518 28.9147 862.953 30.328 861.822 31.48C860.702 32.6213 859.31 33.192 857.646 33.192C855.982 33.192 854.585 32.6213 853.454 31.48C852.334 30.328 851.774 28.9147 851.774 27.24ZM853.902 27.24C853.902 28.392 854.265 29.3573 854.99 30.136C855.716 30.9147 856.601 31.304 857.646 31.304C858.692 31.304 859.577 30.9147 860.302 30.136C861.028 29.3573 861.39 28.392 861.39 27.24C861.39 26.1413 861.028 25.2187 860.302 24.472C859.577 23.7147 858.692 23.336 857.646 23.336C856.601 23.336 855.716 23.7147 854.99 24.472C854.265 25.2187 853.902 26.1413 853.902 27.24ZM864.947 27.272C864.947 25.608 865.496 24.2213 866.595 23.112C867.693 22.0027 869.091 21.448 870.787 21.448C872.515 21.448 873.912 21.9653 874.979 23L873.987 24.536C873.571 24.184 873.08 23.896 872.515 23.672C871.96 23.448 871.416 23.336 870.883 23.336C869.688 23.336 868.755 23.7093 868.083 24.456C867.411 25.2027 867.075 26.1307 867.075 27.24C867.075 28.36 867.416 29.32 868.099 30.12C868.781 30.9093 869.715 31.304 870.899 31.304C872.115 31.304 873.213 30.824 874.195 29.864L875.283 31.352C874.077 32.5787 872.589 33.192 870.819 33.192C869.059 33.192 867.64 32.632 866.563 31.512C865.485 30.392 864.947 28.9787 864.947 27.272ZM879.632 33V23.416H875.904V21.64H885.408V23.416H881.68V33H879.632ZM886.72 32.408L887.632 30.856C888.112 31.2293 888.539 31.416 888.912 31.416C889.414 31.416 889.792 31.0853 890.048 30.424L885.6 21.64H887.872L890.288 26.712L890.928 28.216H890.96C891.099 27.7147 891.254 27.2187 891.424 26.728L893.248 21.64H895.408L891.904 30.616C891.766 30.968 891.622 31.2773 891.472 31.544C891.323 31.8107 891.131 32.0773 890.896 32.344C890.662 32.6107 890.384 32.8187 890.064 32.968C889.744 33.1173 889.387 33.192 888.992 33.192C888.224 33.192 887.467 32.9307 886.72 32.408ZM896.821 33V21.64H906.021V33H903.957V23.416H898.885V33H896.821ZM912.774 33V21.64H914.838V26.264H916.31L918.982 21.64H921.222L918.006 27.048V27.08L921.414 33H919.078L916.31 28.04H914.838V33H912.774ZM926.674 32.408L927.586 30.856C928.066 31.2293 928.492 31.416 928.866 31.416C929.367 31.416 929.746 31.0853 930.002 30.424L925.554 21.64H927.826L930.242 26.712L930.882 28.216H930.914C931.052 27.7147 931.207 27.2187 931.378 26.728L933.202 21.64H935.362L931.858 30.616C931.719 30.968 931.575 31.2773 931.426 31.544C931.276 31.8107 931.084 32.0773 930.85 32.344C930.615 32.6107 930.338 32.8187 930.018 32.968C929.698 33.1173 929.34 33.192 928.946 33.192C928.178 33.192 927.42 32.9307 926.674 32.408ZM939.606 28.776C938.444 28.776 937.574 28.4827 936.998 27.896C936.422 27.2987 936.134 26.456 936.134 25.368V21.64H938.23V24.904C938.23 26.2373 938.865 26.904 940.134 26.904C940.998 26.904 941.777 26.68 942.47 26.232V21.64H944.566V33H942.47V28.6L942.502 28.072H942.47C941.553 28.5413 940.598 28.776 939.606 28.776ZM947.337 33V21.64H954.137V23.416H949.401V26.392H953.225V28.168H949.401V31.224H954.393V33H947.337ZM956.446 33V21.64H963.422V23.416H958.51V26.04H960.782C961.838 26.04 962.692 26.36 963.342 27C964.004 27.6293 964.334 28.4773 964.334 29.544C964.334 30.568 964.009 31.4 963.358 32.04C962.708 32.68 961.865 33 960.83 33H956.446ZM958.51 31.224H960.462C961.028 31.224 961.465 31.0747 961.774 30.776C962.084 30.4773 962.238 30.0667 962.238 29.544C962.238 29.0213 962.078 28.6053 961.758 28.296C961.438 27.976 960.996 27.816 960.43 27.816H958.51V31.224ZM966.306 33V21.64H968.37V26.456H973.57V21.64H975.618V33H973.57V28.232H968.37V33H966.306ZM987.568 33V21.64H989.616V33H987.568ZM978.368 33V21.64H980.432V25.624H982.544C983.6 25.624 984.454 25.9653 985.104 26.648C985.766 27.32 986.096 28.216 986.096 29.336C986.096 30.424 985.771 31.3093 985.12 31.992C984.47 32.664 983.627 33 982.592 33H978.368ZM980.432 31.224H982.224C982.79 31.224 983.227 31.0587 983.536 30.728C983.846 30.3867 984 29.9227 984 29.336C984 28.7493 983.84 28.28 983.52 27.928C983.2 27.576 982.758 27.4 982.192 27.4H980.432V31.224ZM991.952 33L992.88 21.64H995.072L997.312 27.256L997.872 28.92H997.904C998.106 28.2587 998.293 27.704 998.464 27.256L1000.7 21.64H1002.9L1003.82 33H1001.76L1001.3 26.648C1001.27 26.424 1001.26 26.168 1001.26 25.88C1001.26 25.5813 1001.27 25.3413 1001.28 25.16V24.888H1001.25C1001 25.624 1000.79 26.2107 1000.62 26.648L998.784 31.048H996.992L995.152 26.648L994.528 24.872H994.496C994.528 25.5547 994.522 26.1467 994.48 26.648L994.016 33H991.952ZM1009.72 33L1010.65 21.64H1012.84L1015.08 27.256L1015.64 28.92H1015.67C1015.87 28.2587 1016.06 27.704 1016.23 27.256L1018.47 21.64H1020.66L1021.59 33H1019.53L1019.06 26.648C1019.04 26.424 1019.03 26.168 1019.03 25.88C1019.03 25.5813 1019.03 25.3413 1019.05 25.16V24.888H1019.01C1018.77 25.624 1018.56 26.2107 1018.39 26.648L1016.55 31.048H1014.76L1012.92 26.648L1012.29 24.872H1012.26C1012.29 25.5547 1012.29 26.1467 1012.25 26.648L1011.78 33H1009.72ZM1022.67 33L1026.65 21.64H1028.83L1032.81 33H1030.7L1029.72 30.088H1025.74L1024.78 33H1022.67ZM1026.25 28.408H1029.21L1028.2 25.368L1027.76 23.608H1027.72C1027.55 24.3547 1027.4 24.9413 1027.28 25.368L1026.25 28.408ZM1035.96 33V23.416H1032.23V21.64H1041.74V23.416H1038.01V33H1035.96ZM1043.35 33V21.64H1050.15V23.416H1045.42V26.392H1049.24V28.168H1045.42V31.224H1050.41V33H1043.35ZM1052.46 33V21.64H1056.85C1057.91 21.64 1058.78 21.9813 1059.45 22.664C1060.13 23.3467 1060.46 24.2373 1060.46 25.336C1060.46 26.4347 1060.13 27.336 1059.45 28.04C1058.78 28.7333 1057.91 29.08 1056.85 29.08H1054.53V33H1052.46ZM1054.53 27.288H1056.46C1057.06 27.288 1057.52 27.112 1057.85 26.76C1058.2 26.408 1058.37 25.9333 1058.37 25.336C1058.37 24.7493 1058.2 24.2853 1057.85 23.944C1057.52 23.592 1057.07 23.416 1056.49 23.416H1054.53V27.288ZM1062.26 33V21.64H1064.32V28.2L1064.21 29.96H1064.24C1064.61 29.224 1064.93 28.632 1065.2 28.184L1069.49 21.64H1071.54V33H1069.49V26.456L1069.6 24.696H1069.57C1069.22 25.4213 1068.9 26.008 1068.63 26.456L1064.31 33H1062.26ZM1073.06 33L1077.04 21.64H1079.22L1083.2 33H1081.09L1080.11 30.088H1076.13L1075.17 33H1073.06ZM1076.64 28.408H1079.6L1078.59 25.368L1078.15 23.608H1078.11C1077.94 24.3547 1077.79 24.9413 1077.67 25.368L1076.64 28.408ZM1083.56 31.24C1084.41 31.1227 1085.03 30.5573 1085.42 29.544C1085.81 28.52 1086.01 26.92 1086.01 24.744V21.64H1093.03V33H1090.97V23.416H1087.98V24.776C1087.98 27.5707 1087.63 29.6507 1086.94 31.016C1086.24 32.3707 1085.12 33.0747 1083.56 33.128V31.24ZM1094.54 33L1098.53 21.64H1100.7L1104.69 33H1102.57L1101.6 30.088H1097.61L1096.65 33H1094.54ZM1098.13 28.408H1101.09L1100.08 25.368L1099.63 23.608H1099.6C1099.43 24.3547 1099.28 24.9413 1099.15 25.368L1098.13 28.408ZM1105.76 33L1106.69 21.64H1108.88L1111.12 27.256L1111.68 28.92H1111.72C1111.92 28.2587 1112.11 27.704 1112.28 27.256L1114.52 21.64H1116.71L1117.64 33H1115.57L1115.11 26.648C1115.09 26.424 1115.08 26.168 1115.08 25.88C1115.08 25.5813 1115.08 25.3413 1115.09 25.16V24.888H1115.06C1114.81 25.624 1114.61 26.2107 1114.44 26.648L1112.6 31.048H1110.8L1108.96 26.648L1108.34 24.872H1108.31C1108.34 25.5547 1108.33 26.1467 1108.29 26.648L1107.83 33H1105.76Z" fill="#666666"/>
<rect x="1153" width="212" height="55" rx="27.5" fill="#F3F6FF"/>
<path d="M1178.6 33V21.64H1187.8V33H1185.74V23.416H1180.67V33H1178.6ZM1189.88 27.24C1189.88 25.608 1190.44 24.2373 1191.56 23.128C1192.69 22.008 1194.09 21.448 1195.76 21.448C1197.42 21.448 1198.81 22.008 1199.93 23.128C1201.06 24.2373 1201.63 25.608 1201.63 27.24C1201.63 28.9147 1201.06 30.328 1199.93 31.48C1198.81 32.6213 1197.42 33.192 1195.76 33.192C1194.09 33.192 1192.69 32.6213 1191.56 31.48C1190.44 30.328 1189.88 28.9147 1189.88 27.24ZM1192.01 27.24C1192.01 28.392 1192.37 29.3573 1193.1 30.136C1193.83 30.9147 1194.71 31.304 1195.76 31.304C1196.8 31.304 1197.69 30.9147 1198.41 30.136C1199.14 29.3573 1199.5 28.392 1199.5 27.24C1199.5 26.1413 1199.14 25.2187 1198.41 24.472C1197.69 23.7147 1196.8 23.336 1195.76 23.336C1194.71 23.336 1193.83 23.7147 1193.1 24.472C1192.37 25.2187 1192.01 26.1413 1192.01 27.24ZM1203.28 33L1204.21 21.64H1206.4L1208.64 27.256L1209.2 28.92H1209.23C1209.43 28.2587 1209.62 27.704 1209.79 27.256L1212.03 21.64H1214.22L1215.15 33H1213.09L1212.62 26.648C1212.6 26.424 1212.59 26.168 1212.59 25.88C1212.59 25.5813 1212.6 25.3413 1212.61 25.16V24.888H1212.58C1212.33 25.624 1212.12 26.2107 1211.95 26.648L1210.11 31.048H1208.32L1206.48 26.648L1205.86 24.872H1205.82C1205.86 25.5547 1205.85 26.1467 1205.81 26.648L1205.34 33H1203.28ZM1216.81 27.24C1216.81 25.608 1217.37 24.2373 1218.49 23.128C1219.62 22.008 1221.01 21.448 1222.68 21.448C1224.34 21.448 1225.73 22.008 1226.85 23.128C1227.98 24.2373 1228.55 25.608 1228.55 27.24C1228.55 28.9147 1227.98 30.328 1226.85 31.48C1225.73 32.6213 1224.34 33.192 1222.68 33.192C1221.01 33.192 1219.62 32.6213 1218.49 31.48C1217.37 30.328 1216.81 28.9147 1216.81 27.24ZM1218.93 27.24C1218.93 28.392 1219.3 29.3573 1220.02 30.136C1220.75 30.9147 1221.63 31.304 1222.68 31.304C1223.72 31.304 1224.61 30.9147 1225.33 30.136C1226.06 29.3573 1226.42 28.392 1226.42 27.24C1226.42 26.1413 1226.06 25.2187 1225.33 24.472C1224.61 23.7147 1223.72 23.336 1222.68 23.336C1221.63 23.336 1220.75 23.7147 1220.02 24.472C1219.3 25.2187 1218.93 26.1413 1218.93 27.24ZM1230.63 33V21.64H1232.7V31.224H1236.36V21.64H1238.43V31.224H1242.09V21.64H1244.14V31.224H1245.55V35.24H1243.69V33H1230.63ZM1247.48 33V21.64H1249.54V25.624H1251.77C1252.81 25.624 1253.66 25.9653 1254.33 26.648C1254.99 27.32 1255.32 28.216 1255.32 29.336C1255.32 30.424 1254.99 31.3093 1254.34 31.992C1253.69 32.664 1252.84 33 1251.8 33H1247.48ZM1249.54 31.224H1251.43C1251.99 31.224 1252.43 31.0587 1252.74 30.728C1253.06 30.3867 1253.22 29.9227 1253.22 29.336C1253.22 28.7493 1253.06 28.28 1252.73 27.928C1252.41 27.576 1251.96 27.4 1251.4 27.4H1249.54V31.224ZM1261.12 33V21.64H1263.18V26.264H1264.65L1267.33 21.64H1269.57L1266.35 27.048V27.08L1269.76 33H1267.42L1264.65 28.04H1263.18V33H1261.12ZM1271.02 32.408L1271.93 30.856C1272.41 31.2293 1272.84 31.416 1273.21 31.416C1273.71 31.416 1274.09 31.0853 1274.35 30.424L1269.9 21.64H1272.17L1274.59 26.712L1275.23 28.216H1275.26C1275.4 27.7147 1275.55 27.2187 1275.72 26.728L1277.55 21.64H1279.71L1276.2 30.616C1276.06 30.968 1275.92 31.2773 1275.77 31.544C1275.62 31.8107 1275.43 32.0773 1275.19 32.344C1274.96 32.6107 1274.68 32.8187 1274.36 32.968C1274.04 33.1173 1273.68 33.192 1273.29 33.192C1272.52 33.192 1271.76 32.9307 1271.02 32.408ZM1281.12 33V21.64H1285.5C1286.57 21.64 1287.44 21.9813 1288.11 22.664C1288.78 23.3467 1289.12 24.2373 1289.12 25.336C1289.12 26.4347 1288.78 27.336 1288.11 28.04C1287.44 28.7333 1286.57 29.08 1285.5 29.08H1283.18V33H1281.12ZM1283.18 27.288H1285.12C1285.72 27.288 1286.18 27.112 1286.51 26.76C1286.85 26.408 1287.02 25.9333 1287.02 25.336C1287.02 24.7493 1286.85 24.2853 1286.51 23.944C1286.18 23.592 1285.73 23.416 1285.15 23.416H1283.18V27.288ZM1289.09 33L1293.07 21.64H1295.25L1299.23 33H1297.12L1296.14 30.088H1292.16L1291.2 33H1289.09ZM1292.67 28.408H1295.63L1294.62 25.368L1294.18 23.608H1294.14C1293.97 24.3547 1293.82 24.9413 1293.7 25.368L1292.67 28.408ZM1302.38 33V23.416H1298.65V21.64H1308.16V23.416H1304.43V33H1302.38ZM1308.7 27.24C1308.7 25.608 1309.26 24.2373 1310.38 23.128C1311.51 22.008 1312.9 21.448 1314.57 21.448C1316.23 21.448 1317.62 22.008 1318.74 23.128C1319.87 24.2373 1320.44 25.608 1320.44 27.24C1320.44 28.9147 1319.87 30.328 1318.74 31.48C1317.62 32.6213 1316.23 33.192 1314.57 33.192C1312.9 33.192 1311.51 32.6213 1310.38 31.48C1309.26 30.328 1308.7 28.9147 1308.7 27.24ZM1310.82 27.24C1310.82 28.392 1311.19 29.3573 1311.91 30.136C1312.64 30.9147 1313.52 31.304 1314.57 31.304C1315.61 31.304 1316.5 30.9147 1317.22 30.136C1317.95 29.3573 1318.31 28.392 1318.31 27.24C1318.31 26.1413 1317.95 25.2187 1317.22 24.472C1316.5 23.7147 1315.61 23.336 1314.57 23.336C1313.52 23.336 1312.64 23.7147 1311.91 24.472C1311.19 25.2187 1310.82 26.1413 1310.82 27.24ZM1322.52 33V21.64H1326.91C1327.98 21.64 1328.84 21.9813 1329.52 22.664C1330.19 23.3467 1330.52 24.2373 1330.52 25.336C1330.52 26.4347 1330.19 27.336 1329.52 28.04C1328.84 28.7333 1327.98 29.08 1326.91 29.08H1324.59V33H1322.52ZM1324.59 27.288H1326.52C1327.12 27.288 1327.59 27.112 1327.92 26.76C1328.26 26.408 1328.43 25.9333 1328.43 25.336C1328.43 24.7493 1328.26 24.2853 1327.92 23.944C1327.59 23.592 1327.13 23.416 1326.56 23.416H1324.59V27.288ZM1330.5 33L1334.48 21.64H1336.66L1340.64 33H1338.53L1337.55 30.088H1333.57L1332.61 33H1330.5ZM1334.08 28.408H1337.04L1336.03 25.368L1335.58 23.608H1335.55C1335.38 24.3547 1335.23 24.9413 1335.1 25.368L1334.08 28.408Z" fill="#005DFF"/>
<rect x="1375" width="368" height="55" rx="27.5" fill="#F3F6FF"/>
<path d="M1402.39 31.224H1406.9V23.416H1403.86V24.264C1403.86 27.3147 1403.37 29.6347 1402.39 31.224ZM1399.11 31.224H1400.26C1401.36 29.56 1401.91 27.192 1401.91 24.12V21.64H1408.97V31.224H1410.23V35.24H1408.39V33H1401.02V35.24H1399.11V31.224ZM1411.36 27.24C1411.36 25.608 1411.92 24.2373 1413.04 23.128C1414.17 22.008 1415.57 21.448 1417.23 21.448C1418.9 21.448 1420.29 22.008 1421.41 23.128C1422.54 24.2373 1423.1 25.608 1423.1 27.24C1423.1 28.9147 1422.54 30.328 1421.41 31.48C1420.29 32.6213 1418.9 33.192 1417.23 33.192C1415.57 33.192 1414.17 32.6213 1413.04 31.48C1411.92 30.328 1411.36 28.9147 1411.36 27.24ZM1413.49 27.24C1413.49 28.392 1413.85 29.3573 1414.58 30.136C1415.3 30.9147 1416.19 31.304 1417.23 31.304C1418.28 31.304 1419.16 30.9147 1419.89 30.136C1420.61 29.3573 1420.98 28.392 1420.98 27.24C1420.98 26.1413 1420.61 25.2187 1419.89 24.472C1419.16 23.7147 1418.28 23.336 1417.23 23.336C1416.19 23.336 1415.3 23.7147 1414.58 24.472C1413.85 25.2187 1413.49 26.1413 1413.49 27.24ZM1424.53 27.272C1424.53 25.608 1425.08 24.2213 1426.18 23.112C1427.28 22.0027 1428.68 21.448 1430.37 21.448C1432.1 21.448 1433.5 21.9653 1434.56 23L1433.57 24.536C1433.16 24.184 1432.67 23.896 1432.1 23.672C1431.55 23.448 1431 23.336 1430.47 23.336C1429.27 23.336 1428.34 23.7093 1427.67 24.456C1427 25.2027 1426.66 26.1307 1426.66 27.24C1426.66 28.36 1427 29.32 1427.68 30.12C1428.37 30.9093 1429.3 31.304 1430.48 31.304C1431.7 31.304 1432.8 30.824 1433.78 29.864L1434.87 31.352C1433.66 32.5787 1432.18 33.192 1430.4 33.192C1428.64 33.192 1427.23 32.632 1426.15 31.512C1425.07 30.392 1424.53 28.9787 1424.53 27.272ZM1439.22 33V23.416H1435.49V21.64H1444.99V23.416H1441.27V33H1439.22ZM1446.31 32.408L1447.22 30.856C1447.7 31.2293 1448.13 31.416 1448.5 31.416C1449 31.416 1449.38 31.0853 1449.63 30.424L1445.19 21.64H1447.46L1449.87 26.712L1450.51 28.216H1450.55C1450.69 27.7147 1450.84 27.2187 1451.01 26.728L1452.83 21.64H1454.99L1451.49 30.616C1451.35 30.968 1451.21 31.2773 1451.06 31.544C1450.91 31.8107 1450.72 32.0773 1450.48 32.344C1450.25 32.6107 1449.97 32.8187 1449.65 32.968C1449.33 33.1173 1448.97 33.192 1448.58 33.192C1447.81 33.192 1447.05 32.9307 1446.31 32.408ZM1456.41 33V21.64H1465.61V33H1463.54V23.416H1458.47V33H1456.41ZM1472.36 33V21.64H1474.42V26.264H1475.9L1478.57 21.64H1480.81L1477.59 27.048V27.08L1481 33H1478.66L1475.9 28.04H1474.42V33H1472.36ZM1485.64 31.448L1486.68 29.992C1487.09 30.3867 1487.6 30.7067 1488.2 30.952C1488.79 31.1973 1489.41 31.32 1490.05 31.32C1491.05 31.32 1491.89 31.0213 1492.55 30.424C1493.21 29.8267 1493.61 29.0693 1493.75 28.152H1488.31V26.472H1493.76C1493.65 25.5547 1493.25 24.8027 1492.58 24.216C1491.91 23.6187 1491.07 23.32 1490.07 23.32C1488.89 23.32 1487.82 23.7467 1486.84 24.6L1485.84 23.048C1486.36 22.5253 1486.99 22.1307 1487.75 21.864C1488.5 21.5867 1489.3 21.448 1490.13 21.448C1491.87 21.448 1493.27 22.0027 1494.34 23.112C1495.41 24.2213 1495.94 25.6027 1495.94 27.256C1495.94 28.952 1495.38 30.3653 1494.28 31.496C1493.17 32.6267 1491.76 33.192 1490.05 33.192C1488.32 33.192 1486.85 32.6107 1485.64 31.448ZM1496.55 31.24C1497.41 31.1227 1498.02 30.5573 1498.41 29.544C1498.8 28.52 1499 26.92 1499 24.744V21.64H1506.02V33H1503.96V23.416H1500.97V24.776C1500.97 27.5707 1500.62 29.6507 1499.93 31.016C1499.23 32.3707 1498.11 33.0747 1496.55 33.128V31.24ZM1508.78 33V21.64H1515.58V23.416H1510.85V26.392H1514.67V28.168H1510.85V31.224H1515.84V33H1508.78ZM1517.89 33V21.64H1519.96V26.264H1521.43L1524.1 21.64H1526.34L1523.12 27.048V27.08L1526.53 33H1524.2L1521.43 28.04H1519.96V33H1517.89ZM1530.67 33V23.416H1526.94V21.64H1536.45V23.416H1532.72V33H1530.67ZM1538.06 33V21.64H1542.45C1543.51 21.64 1544.38 21.9813 1545.06 22.664C1545.73 23.3467 1546.06 24.2373 1546.06 25.336C1546.06 26.4347 1545.73 27.336 1545.06 28.04C1544.38 28.7333 1543.51 29.08 1542.45 29.08H1540.13V33H1538.06ZM1540.13 27.288H1542.06C1542.66 27.288 1543.12 27.112 1543.46 26.76C1543.8 26.408 1543.97 25.9333 1543.97 25.336C1543.97 24.7493 1543.8 24.2853 1543.46 23.944C1543.12 23.592 1542.67 23.416 1542.1 23.416H1540.13V27.288ZM1547.19 27.24C1547.19 25.608 1547.75 24.2373 1548.87 23.128C1550 22.008 1551.4 21.448 1553.06 21.448C1554.72 21.448 1556.12 22.008 1557.24 23.128C1558.37 24.2373 1558.93 25.608 1558.93 27.24C1558.93 28.9147 1558.37 30.328 1557.24 31.48C1556.12 32.6213 1554.72 33.192 1553.06 33.192C1551.4 33.192 1550 32.6213 1548.87 31.48C1547.75 30.328 1547.19 28.9147 1547.19 27.24ZM1549.32 27.24C1549.32 28.392 1549.68 29.3573 1550.4 30.136C1551.13 30.9147 1552.02 31.304 1553.06 31.304C1554.11 31.304 1554.99 30.9147 1555.72 30.136C1556.44 29.3573 1556.8 28.392 1556.8 27.24C1556.8 26.1413 1556.44 25.2187 1555.72 24.472C1554.99 23.7147 1554.11 23.336 1553.06 23.336C1552.02 23.336 1551.13 23.7147 1550.4 24.472C1549.68 25.2187 1549.32 26.1413 1549.32 27.24ZM1561.02 33V21.64H1563.08V26.456H1568.28V21.64H1570.33V33H1568.28V28.232H1563.08V33H1561.02ZM1573.08 33V21.64H1575.14V26.456H1580.34V21.64H1582.39V33H1580.34V28.232H1575.14V33H1573.08ZM1584.47 27.24C1584.47 25.608 1585.03 24.2373 1586.15 23.128C1587.28 22.008 1588.68 21.448 1590.34 21.448C1592.01 21.448 1593.4 22.008 1594.52 23.128C1595.65 24.2373 1596.21 25.608 1596.21 27.24C1596.21 28.9147 1595.65 30.328 1594.52 31.48C1593.4 32.6213 1592.01 33.192 1590.34 33.192C1588.68 33.192 1587.28 32.6213 1586.15 31.48C1585.03 30.328 1584.47 28.9147 1584.47 27.24ZM1586.6 27.24C1586.6 28.392 1586.96 29.3573 1587.69 30.136C1588.41 30.9147 1589.3 31.304 1590.34 31.304C1591.39 31.304 1592.27 30.9147 1593 30.136C1593.72 29.3573 1594.09 28.392 1594.09 27.24C1594.09 26.1413 1593.72 25.2187 1593 24.472C1592.27 23.7147 1591.39 23.336 1590.34 23.336C1589.3 23.336 1588.41 23.7147 1587.69 24.472C1586.96 25.2187 1586.6 26.1413 1586.6 27.24ZM1604.89 20.536C1604.38 20.9307 1603.76 21.128 1603.03 21.128C1602.31 21.128 1601.69 20.9307 1601.18 20.536C1600.67 20.1307 1600.41 19.592 1600.41 18.92V18.712H1601.96V18.92C1601.96 19.24 1602.07 19.4907 1602.28 19.672C1602.5 19.8427 1602.75 19.928 1603.03 19.928C1603.32 19.928 1603.57 19.8427 1603.79 19.672C1604.01 19.4907 1604.12 19.2347 1604.12 18.904V18.712H1605.66V18.92C1605.66 19.592 1605.4 20.1307 1604.89 20.536ZM1598.3 33V21.64H1600.36V28.2L1600.25 29.96H1600.28C1600.64 29.224 1600.96 28.632 1601.24 28.184L1605.53 21.64H1607.58V33H1605.53V26.456L1605.64 24.696H1605.61C1605.26 25.4213 1604.94 26.008 1604.67 26.456L1600.35 33H1598.3ZM1614.34 33V21.64H1621.32V23.416H1616.41V26.04H1618.68C1619.74 26.04 1620.59 26.36 1621.24 27C1621.9 27.6293 1622.23 28.4773 1622.23 29.544C1622.23 30.568 1621.91 31.4 1621.26 32.04C1620.61 32.68 1619.76 33 1618.73 33H1614.34ZM1616.41 31.224H1618.36C1618.93 31.224 1619.36 31.0747 1619.67 30.776C1619.98 30.4773 1620.14 30.0667 1620.14 29.544C1620.14 29.0213 1619.98 28.6053 1619.66 28.296C1619.34 27.976 1618.89 27.816 1618.33 27.816H1616.41V31.224ZM1624.2 33V21.64H1626.27V28.2L1626.16 29.96H1626.19C1626.55 29.224 1626.87 28.632 1627.15 28.184L1631.44 21.64H1633.48V33H1631.44V26.456L1631.55 24.696H1631.52C1631.16 25.4213 1630.85 26.008 1630.57 26.456L1626.25 33H1624.2ZM1636.25 33V21.64H1643.23V23.416H1638.32V26.04H1640.59C1641.64 26.04 1642.5 26.36 1643.15 27C1643.81 27.6293 1644.14 28.4773 1644.14 29.544C1644.14 30.568 1643.81 31.4 1643.16 32.04C1642.51 32.68 1641.67 33 1640.64 33H1636.25ZM1638.32 31.224H1640.27C1640.83 31.224 1641.27 31.0747 1641.58 30.776C1641.89 30.4773 1642.04 30.0667 1642.04 29.544C1642.04 29.0213 1641.88 28.6053 1641.56 28.296C1641.24 27.976 1640.8 27.816 1640.24 27.816H1638.32V31.224ZM1644.96 31.24C1645.81 31.1227 1646.43 30.5573 1646.81 29.544C1647.21 28.52 1647.41 26.92 1647.41 24.744V21.64H1654.43V33H1652.37V23.416H1649.37V24.776C1649.37 27.5707 1649.03 29.6507 1648.33 31.016C1647.64 32.3707 1646.52 33.0747 1644.96 33.128V31.24ZM1657.19 33V21.64H1659.25V28.2L1659.14 29.96H1659.17C1659.54 29.224 1659.86 28.632 1660.13 28.184L1664.42 21.64H1666.47V33H1664.42V26.456L1664.53 24.696H1664.5C1664.15 25.4213 1663.83 26.008 1663.56 26.456L1659.24 33H1657.19ZM1668.56 27.24C1668.56 25.608 1669.12 24.2373 1670.24 23.128C1671.37 22.008 1672.77 21.448 1674.44 21.448C1676.1 21.448 1677.49 22.008 1678.61 23.128C1679.74 24.2373 1680.31 25.608 1680.31 27.24C1680.31 28.9147 1679.74 30.328 1678.61 31.48C1677.49 32.6213 1676.1 33.192 1674.44 33.192C1672.77 33.192 1671.37 32.6213 1670.24 31.48C1669.12 30.328 1668.56 28.9147 1668.56 27.24ZM1670.69 27.24C1670.69 28.392 1671.05 29.3573 1671.78 30.136C1672.5 30.9147 1673.39 31.304 1674.44 31.304C1675.48 31.304 1676.37 30.9147 1677.09 30.136C1677.82 29.3573 1678.18 28.392 1678.18 27.24C1678.18 26.1413 1677.82 25.2187 1677.09 24.472C1676.37 23.7147 1675.48 23.336 1674.44 23.336C1673.39 23.336 1672.5 23.7147 1671.78 24.472C1671.05 25.2187 1670.69 26.1413 1670.69 27.24ZM1684.56 33V23.416H1680.83V21.64H1690.34V23.416H1686.61V33H1684.56ZM1691.95 33V21.64H1698.75V23.416H1694.02V26.392H1697.84V28.168H1694.02V31.224H1699.01V33H1691.95ZM1701.06 33V21.64H1703.13V26.264H1704.6L1707.27 21.64H1709.51L1706.3 27.048V27.08L1709.7 33H1707.37L1704.6 28.04H1703.13V33H1701.06ZM1711.27 33V21.64H1718.07V23.416H1713.33V26.392H1717.15V28.168H1713.33V31.224H1718.32V33H1711.27Z" fill="#666666"/>
</svg>
