<svg width="1743" height="55" viewBox="0 0 1743 55" fill="none" xmlns="http://www.w3.org/2000/svg">
<rect width="328" height="55" rx="27.5" fill="#F3F6FF"/>
<path d="M27.8061 31.224H32.3181V23.416H29.2781V24.264C29.2781 27.3147 28.7874 29.6347 27.8061 31.224ZM24.5261 31.224H25.6781C26.7767 29.56 27.3261 27.192 27.3261 24.12V21.64H34.3821V31.224H35.6461V35.24H33.8061V33H26.4301V35.24H24.5261V31.224ZM36.7743 27.24C36.7743 25.608 37.3343 24.2373 38.4543 23.128C39.585 22.008 40.9823 21.448 42.6463 21.448C44.3103 21.448 45.7023 22.008 46.8223 23.128C47.953 24.2373 48.5183 25.608 48.5183 27.24C48.5183 28.9147 47.953 30.328 46.8223 31.48C45.7023 32.6213 44.3103 33.192 42.6463 33.192C40.9823 33.192 39.585 32.6213 38.4543 31.48C37.3343 30.328 36.7743 28.9147 36.7743 27.24ZM38.9023 27.24C38.9023 28.392 39.265 29.3573 39.9903 30.136C40.7156 30.9147 41.601 31.304 42.6463 31.304C43.6916 31.304 44.577 30.9147 45.3023 30.136C46.0276 29.3573 46.3903 28.392 46.3903 27.24C46.3903 26.1413 46.0276 25.2187 45.3023 24.472C44.577 23.7147 43.6916 23.336 42.6463 23.336C41.601 23.336 40.7156 23.7147 39.9903 24.472C39.265 25.2187 38.9023 26.1413 38.9023 27.24ZM49.9466 27.272C49.9466 25.608 50.4959 24.2213 51.5946 23.112C52.6932 22.0027 54.0906 21.448 55.7866 21.448C57.5146 21.448 58.9119 21.9653 59.9786 23L58.9866 24.536C58.5706 24.184 58.0799 23.896 57.5146 23.672C56.9599 23.448 56.4159 23.336 55.8826 23.336C54.6879 23.336 53.7546 23.7093 53.0826 24.456C52.4106 25.2027 52.0746 26.1307 52.0746 27.24C52.0746 28.36 52.4159 29.32 53.0986 30.12C53.7812 30.9093 54.7146 31.304 55.8986 31.304C57.1146 31.304 58.2132 30.824 59.1946 29.864L60.2826 31.352C59.0772 32.5787 57.5892 33.192 55.8186 33.192C54.0586 33.192 52.6399 32.632 51.5626 31.512C50.4852 30.392 49.9466 28.9787 49.9466 27.272ZM64.6317 33V23.416H60.9037V21.64H70.4077V23.416H66.6797V33H64.6317ZM71.7204 32.408L72.6324 30.856C73.1124 31.2293 73.5391 31.416 73.9124 31.416C74.4138 31.416 74.7924 31.0853 75.0484 30.424L70.6004 21.64H72.8724L75.2884 26.712L75.9284 28.216H75.9604C76.0991 27.7147 76.2538 27.2187 76.4244 26.728L78.2484 21.64H80.4084L76.9044 30.616C76.7658 30.968 76.6218 31.2773 76.4724 31.544C76.3231 31.8107 76.1311 32.0773 75.8964 32.344C75.6618 32.6107 75.3844 32.8187 75.0644 32.968C74.7444 33.1173 74.3871 33.192 73.9924 33.192C73.2244 33.192 72.4671 32.9307 71.7204 32.408ZM81.8213 33V21.64H91.0213V33H88.9573V23.416H83.8853V33H81.8213ZM97.7744 33V21.64H99.8384V26.264H101.31L103.982 21.64H106.222L103.006 27.048V27.08L106.414 33H104.078L101.31 28.04H99.8384V33H97.7744ZM111.674 32.408L112.586 30.856C113.066 31.2293 113.492 31.416 113.866 31.416C114.367 31.416 114.746 31.0853 115.002 30.424L110.554 21.64H112.826L115.242 26.712L115.882 28.216H115.914C116.052 27.7147 116.207 27.2187 116.378 26.728L118.202 21.64H120.362L116.858 30.616C116.719 30.968 116.575 31.2773 116.426 31.544C116.276 31.8107 116.084 32.0773 115.85 32.344C115.615 32.6107 115.338 32.8187 115.018 32.968C114.698 33.1173 114.34 33.192 113.946 33.192C113.178 33.192 112.42 32.9307 111.674 32.408ZM124.606 28.776C123.444 28.776 122.574 28.4827 121.998 27.896C121.422 27.2987 121.134 26.456 121.134 25.368V21.64H123.23V24.904C123.23 26.2373 123.865 26.904 125.134 26.904C125.998 26.904 126.777 26.68 127.47 26.232V21.64H129.566V33H127.47V28.6L127.502 28.072H127.47C126.553 28.5413 125.598 28.776 124.606 28.776ZM132.337 33V21.64H139.137V23.416H134.401V26.392H138.225V28.168H134.401V31.224H139.393V33H132.337ZM141.446 33V21.64H148.422V23.416H143.51V26.04H145.782C146.838 26.04 147.692 26.36 148.342 27C149.004 27.6293 149.334 28.4773 149.334 29.544C149.334 30.568 149.009 31.4 148.358 32.04C147.708 32.68 146.865 33 145.83 33H141.446ZM143.51 31.224H145.462C146.028 31.224 146.465 31.0747 146.774 30.776C147.084 30.4773 147.238 30.0667 147.238 29.544C147.238 29.0213 147.078 28.6053 146.758 28.296C146.438 27.976 145.996 27.816 145.43 27.816H143.51V31.224ZM151.306 33V21.64H153.37V26.456H158.57V21.64H160.618V33H158.57V28.232H153.37V33H151.306ZM172.568 33V21.64H174.616V33H172.568ZM163.368 33V21.64H165.432V25.624H167.544C168.6 25.624 169.454 25.9653 170.104 26.648C170.766 27.32 171.096 28.216 171.096 29.336C171.096 30.424 170.771 31.3093 170.12 31.992C169.47 32.664 168.627 33 167.592 33H163.368ZM165.432 31.224H167.224C167.79 31.224 168.227 31.0587 168.536 30.728C168.846 30.3867 169 29.9227 169 29.336C169 28.7493 168.84 28.28 168.52 27.928C168.2 27.576 167.758 27.4 167.192 27.4H165.432V31.224ZM176.952 33L177.88 21.64H180.072L182.312 27.256L182.872 28.92H182.904C183.106 28.2587 183.293 27.704 183.464 27.256L185.704 21.64H187.896L188.824 33H186.76L186.296 26.648C186.274 26.424 186.264 26.168 186.264 25.88C186.264 25.5813 186.269 25.3413 186.28 25.16V24.888H186.248C186.002 25.624 185.794 26.2107 185.624 26.648L183.784 31.048H181.992L180.152 26.648L179.528 24.872H179.496C179.528 25.5547 179.522 26.1467 179.48 26.648L179.016 33H176.952ZM194.717 33L195.645 21.64H197.837L200.077 27.256L200.637 28.92H200.669C200.872 28.2587 201.059 27.704 201.229 27.256L203.469 21.64H205.661L206.589 33H204.525L204.061 26.648C204.04 26.424 204.029 26.168 204.029 25.88C204.029 25.5813 204.035 25.3413 204.045 25.16V24.888H204.013C203.768 25.624 203.56 26.2107 203.389 26.648L201.549 31.048H199.757L197.917 26.648L197.293 24.872H197.261C197.293 25.5547 197.288 26.1467 197.245 26.648L196.781 33H194.717ZM207.667 33L211.651 21.64H213.827L217.811 33H215.699L214.723 30.088H210.739L209.779 33H207.667ZM211.251 28.408H214.211L213.203 25.368L212.755 23.608H212.723C212.552 24.3547 212.403 24.9413 212.275 25.368L211.251 28.408ZM220.96 33V23.416H217.232V21.64H226.736V23.416H223.008V33H220.96ZM228.353 33V21.64H235.153V23.416H230.417V26.392H234.241V28.168H230.417V31.224H235.409V33H228.353ZM237.462 33V21.64H241.846C242.913 21.64 243.782 21.9813 244.454 22.664C245.126 23.3467 245.462 24.2373 245.462 25.336C245.462 26.4347 245.126 27.336 244.454 28.04C243.782 28.7333 242.913 29.08 241.846 29.08H239.526V33H237.462ZM239.526 27.288H241.462C242.059 27.288 242.523 27.112 242.854 26.76C243.195 26.408 243.366 25.9333 243.366 25.336C243.366 24.7493 243.195 24.2853 242.854 23.944C242.523 23.592 242.07 23.416 241.494 23.416H239.526V27.288ZM247.259 33V21.64H249.323V28.2L249.211 29.96H249.243C249.605 29.224 249.925 28.632 250.203 28.184L254.491 21.64H256.539V33H254.491V26.456L254.603 24.696H254.571C254.219 25.4213 253.904 26.008 253.627 26.456L249.307 33H247.259ZM258.058 33L262.042 21.64H264.218L268.202 33H266.09L265.114 30.088H261.13L260.17 33H258.058ZM261.642 28.408H264.602L263.594 25.368L263.146 23.608H263.114C262.943 24.3547 262.794 24.9413 262.666 25.368L261.642 28.408ZM268.56 31.24C269.413 31.1227 270.032 30.5573 270.416 29.544C270.811 28.52 271.008 26.92 271.008 24.744V21.64H278.032V33H275.968V23.416H272.976V24.776C272.976 27.5707 272.629 29.6507 271.936 31.016C271.243 32.3707 270.117 33.0747 268.56 33.128V31.24ZM279.542 33L283.526 21.64H285.702L289.686 33H287.574L286.598 30.088H282.614L281.654 33H279.542ZM283.126 28.408H286.086L285.078 25.368L284.63 23.608H284.598C284.427 24.3547 284.278 24.9413 284.15 25.368L283.126 28.408ZM290.764 33L291.692 21.64H293.884L296.124 27.256L296.684 28.92H296.716C296.919 28.2587 297.106 27.704 297.276 27.256L299.516 21.64H301.708L302.636 33H300.572L300.108 26.648C300.087 26.424 300.076 26.168 300.076 25.88C300.076 25.5813 300.082 25.3413 300.092 25.16V24.888H300.06C299.815 25.624 299.607 26.2107 299.436 26.648L297.596 31.048H295.804L293.964 26.648L293.34 24.872H293.308C293.34 25.5547 293.335 26.1467 293.292 26.648L292.828 33H290.764Z" fill="#005DFF"/>
<rect x="338" width="368" height="55" rx="27.5" fill="#F3F6FF"/>
<path d="M365.392 31.224H369.904V23.416H366.864V24.264C366.864 27.3147 366.373 29.6347 365.392 31.224ZM362.112 31.224H363.264C364.363 29.56 364.912 27.192 364.912 24.12V21.64H371.968V31.224H373.232V35.24H371.392V33H364.016V35.24H362.112V31.224ZM374.36 27.24C374.36 25.608 374.92 24.2373 376.04 23.128C377.171 22.008 378.568 21.448 380.232 21.448C381.896 21.448 383.288 22.008 384.408 23.128C385.539 24.2373 386.104 25.608 386.104 27.24C386.104 28.9147 385.539 30.328 384.408 31.48C383.288 32.6213 381.896 33.192 380.232 33.192C378.568 33.192 377.171 32.6213 376.04 31.48C374.92 30.328 374.36 28.9147 374.36 27.24ZM376.488 27.24C376.488 28.392 376.851 29.3573 377.576 30.136C378.302 30.9147 379.187 31.304 380.232 31.304C381.278 31.304 382.163 30.9147 382.888 30.136C383.614 29.3573 383.976 28.392 383.976 27.24C383.976 26.1413 383.614 25.2187 382.888 24.472C382.163 23.7147 381.278 23.336 380.232 23.336C379.187 23.336 378.302 23.7147 377.576 24.472C376.851 25.2187 376.488 26.1413 376.488 27.24ZM387.533 27.272C387.533 25.608 388.082 24.2213 389.181 23.112C390.279 22.0027 391.677 21.448 393.373 21.448C395.101 21.448 396.498 21.9653 397.565 23L396.573 24.536C396.157 24.184 395.666 23.896 395.101 23.672C394.546 23.448 394.002 23.336 393.469 23.336C392.274 23.336 391.341 23.7093 390.669 24.456C389.997 25.2027 389.661 26.1307 389.661 27.24C389.661 28.36 390.002 29.32 390.685 30.12C391.367 30.9093 392.301 31.304 393.485 31.304C394.701 31.304 395.799 30.824 396.781 29.864L397.869 31.352C396.663 32.5787 395.175 33.192 393.405 33.192C391.645 33.192 390.226 32.632 389.149 31.512C388.071 30.392 387.533 28.9787 387.533 27.272ZM402.218 33V23.416H398.49V21.64H407.994V23.416H404.266V33H402.218ZM409.306 32.408L410.218 30.856C410.698 31.2293 411.125 31.416 411.498 31.416C412 31.416 412.378 31.0853 412.634 30.424L408.186 21.64H410.458L412.874 26.712L413.514 28.216H413.546C413.685 27.7147 413.84 27.2187 414.01 26.728L415.834 21.64H417.994L414.49 30.616C414.352 30.968 414.208 31.2773 414.058 31.544C413.909 31.8107 413.717 32.0773 413.482 32.344C413.248 32.6107 412.97 32.8187 412.65 32.968C412.33 33.1173 411.973 33.192 411.578 33.192C410.81 33.192 410.053 32.9307 409.306 32.408ZM419.407 33V21.64H428.607V33H426.543V23.416H421.471V33H419.407ZM435.36 33V21.64H437.424V26.264H438.896L441.568 21.64H443.808L440.592 27.048V27.08L444 33H441.664L438.896 28.04H437.424V33H435.36ZM448.636 31.448L449.676 29.992C450.092 30.3867 450.598 30.7067 451.196 30.952C451.793 31.1973 452.412 31.32 453.052 31.32C454.054 31.32 454.886 31.0213 455.548 30.424C456.209 29.8267 456.609 29.0693 456.748 28.152H451.308V26.472H456.764C456.646 25.5547 456.252 24.8027 455.58 24.216C454.908 23.6187 454.07 23.32 453.068 23.32C451.894 23.32 450.817 23.7467 449.836 24.6L448.844 23.048C449.356 22.5253 449.99 22.1307 450.748 21.864C451.505 21.5867 452.3 21.448 453.132 21.448C454.87 21.448 456.273 22.0027 457.34 23.112C458.406 24.2213 458.94 25.6027 458.94 27.256C458.94 28.952 458.385 30.3653 457.276 31.496C456.166 32.6267 454.758 33.192 453.052 33.192C451.324 33.192 449.852 32.6107 448.636 31.448ZM459.552 31.24C460.405 31.1227 461.024 30.5573 461.408 29.544C461.803 28.52 462 26.92 462 24.744V21.64H469.024V33H466.96V23.416H463.968V24.776C463.968 27.5707 463.621 29.6507 462.928 31.016C462.235 32.3707 461.109 33.0747 459.552 33.128V31.24ZM471.782 33V21.64H478.582V23.416H473.846V26.392H477.67V28.168H473.846V31.224H478.838V33H471.782ZM480.892 33V21.64H482.956V26.264H484.428L487.1 21.64H489.34L486.124 27.048V27.08L489.532 33H487.196L484.428 28.04H482.956V33H480.892ZM493.671 33V23.416H489.943V21.64H499.447V23.416H495.719V33H493.671ZM501.064 33V21.64H505.448C506.514 21.64 507.384 21.9813 508.056 22.664C508.728 23.3467 509.064 24.2373 509.064 25.336C509.064 26.4347 508.728 27.336 508.056 28.04C507.384 28.7333 506.514 29.08 505.448 29.08H503.128V33H501.064ZM503.128 27.288H505.064C505.661 27.288 506.125 27.112 506.456 26.76C506.797 26.408 506.968 25.9333 506.968 25.336C506.968 24.7493 506.797 24.2853 506.456 23.944C506.125 23.592 505.672 23.416 505.096 23.416H503.128V27.288ZM510.188 27.24C510.188 25.608 510.748 24.2373 511.868 23.128C512.999 22.008 514.396 21.448 516.06 21.448C517.724 21.448 519.116 22.008 520.236 23.128C521.367 24.2373 521.932 25.608 521.932 27.24C521.932 28.9147 521.367 30.328 520.236 31.48C519.116 32.6213 517.724 33.192 516.06 33.192C514.396 33.192 512.999 32.6213 511.868 31.48C510.748 30.328 510.188 28.9147 510.188 27.24ZM512.316 27.24C512.316 28.392 512.679 29.3573 513.404 30.136C514.13 30.9147 515.015 31.304 516.06 31.304C517.106 31.304 517.991 30.9147 518.716 30.136C519.442 29.3573 519.804 28.392 519.804 27.24C519.804 26.1413 519.442 25.2187 518.716 24.472C517.991 23.7147 517.106 23.336 516.06 23.336C515.015 23.336 514.13 23.7147 513.404 24.472C512.679 25.2187 512.316 26.1413 512.316 27.24ZM524.017 33V21.64H526.081V26.456H531.281V21.64H533.329V33H531.281V28.232H526.081V33H524.017ZM536.079 33V21.64H538.143V26.456H543.343V21.64H545.391V33H543.343V28.232H538.143V33H536.079ZM547.47 27.24C547.47 25.608 548.03 24.2373 549.15 23.128C550.28 22.008 551.678 21.448 553.342 21.448C555.006 21.448 556.398 22.008 557.518 23.128C558.648 24.2373 559.214 25.608 559.214 27.24C559.214 28.9147 558.648 30.328 557.518 31.48C556.398 32.6213 555.006 33.192 553.342 33.192C551.678 33.192 550.28 32.6213 549.15 31.48C548.03 30.328 547.47 28.9147 547.47 27.24ZM549.598 27.24C549.598 28.392 549.96 29.3573 550.686 30.136C551.411 30.9147 552.296 31.304 553.342 31.304C554.387 31.304 555.272 30.9147 555.998 30.136C556.723 29.3573 557.086 28.392 557.086 27.24C557.086 26.1413 556.723 25.2187 555.998 24.472C555.272 23.7147 554.387 23.336 553.342 23.336C552.296 23.336 551.411 23.7147 550.686 24.472C549.96 25.2187 549.598 26.1413 549.598 27.24ZM567.89 20.536C567.378 20.9307 566.759 21.128 566.034 21.128C565.309 21.128 564.69 20.9307 564.178 20.536C563.666 20.1307 563.41 19.592 563.41 18.92V18.712H564.962V18.92C564.962 19.24 565.069 19.4907 565.282 19.672C565.495 19.8427 565.746 19.928 566.034 19.928C566.322 19.928 566.573 19.8427 566.786 19.672C567.01 19.4907 567.122 19.2347 567.122 18.904V18.712H568.658V18.92C568.658 19.592 568.402 20.1307 567.89 20.536ZM561.298 33V21.64H563.362V28.2L563.25 29.96H563.282C563.645 29.224 563.965 28.632 564.242 28.184L568.53 21.64H570.578V33H568.53V26.456L568.642 24.696H568.61C568.258 25.4213 567.943 26.008 567.666 26.456L563.346 33H561.298ZM577.345 33V21.64H584.321V23.416H579.409V26.04H581.681C582.737 26.04 583.59 26.36 584.241 27C584.902 27.6293 585.233 28.4773 585.233 29.544C585.233 30.568 584.907 31.4 584.257 32.04C583.606 32.68 582.763 33 581.729 33H577.345ZM579.409 31.224H581.361C581.926 31.224 582.363 31.0747 582.673 30.776C582.982 30.4773 583.137 30.0667 583.137 29.544C583.137 29.0213 582.977 28.6053 582.657 28.296C582.337 27.976 581.894 27.816 581.329 27.816H579.409V31.224ZM587.204 33V21.64H589.268V28.2L589.156 29.96H589.188C589.551 29.224 589.871 28.632 590.148 28.184L594.436 21.64H596.484V33H594.436V26.456L594.548 24.696H594.516C594.164 25.4213 593.849 26.008 593.572 26.456L589.252 33H587.204ZM599.251 33V21.64H606.227V23.416H601.315V26.04H603.587C604.643 26.04 605.496 26.36 606.147 27C606.808 27.6293 607.139 28.4773 607.139 29.544C607.139 30.568 606.814 31.4 606.163 32.04C605.512 32.68 604.67 33 603.635 33H599.251ZM601.315 31.224H603.267C603.832 31.224 604.27 31.0747 604.579 30.776C604.888 30.4773 605.043 30.0667 605.043 29.544C605.043 29.0213 604.883 28.6053 604.563 28.296C604.243 27.976 603.8 27.816 603.235 27.816H601.315V31.224ZM607.958 31.24C608.812 31.1227 609.43 30.5573 609.814 29.544C610.209 28.52 610.406 26.92 610.406 24.744V21.64H617.43V33H615.366V23.416H612.374V24.776C612.374 27.5707 612.028 29.6507 611.334 31.016C610.641 32.3707 609.516 33.0747 607.958 33.128V31.24ZM620.189 33V21.64H622.253V28.2L622.141 29.96H622.173C622.535 29.224 622.855 28.632 623.133 28.184L627.421 21.64H629.469V33H627.421V26.456L627.533 24.696H627.501C627.149 25.4213 626.834 26.008 626.557 26.456L622.237 33H620.189ZM631.563 27.24C631.563 25.608 632.123 24.2373 633.243 23.128C634.374 22.008 635.771 21.448 637.435 21.448C639.099 21.448 640.491 22.008 641.611 23.128C642.742 24.2373 643.307 25.608 643.307 27.24C643.307 28.9147 642.742 30.328 641.611 31.48C640.491 32.6213 639.099 33.192 637.435 33.192C635.771 33.192 634.374 32.6213 633.243 31.48C632.123 30.328 631.563 28.9147 631.563 27.24ZM633.691 27.24C633.691 28.392 634.054 29.3573 634.779 30.136C635.505 30.9147 636.39 31.304 637.435 31.304C638.481 31.304 639.366 30.9147 640.091 30.136C640.817 29.3573 641.179 28.392 641.179 27.24C641.179 26.1413 640.817 25.2187 640.091 24.472C639.366 23.7147 638.481 23.336 637.435 23.336C636.39 23.336 635.505 23.7147 634.779 24.472C634.054 25.2187 633.691 26.1413 633.691 27.24ZM647.561 33V23.416H643.833V21.64H653.337V23.416H649.609V33H647.561ZM654.954 33V21.64H661.754V23.416H657.018V26.392H660.842V28.168H657.018V31.224H662.01V33H654.954ZM664.064 33V21.64H666.128V26.264H667.6L670.272 21.64H672.512L669.296 27.048V27.08L672.704 33H670.368L667.6 28.04H666.128V33H664.064ZM674.267 33V21.64H681.067V23.416H676.331V26.392H680.155V28.168H676.331V31.224H681.323V33H674.267Z" fill="#666666"/>
<rect x="716" width="460" height="55" rx="27.5" fill="#F3F6FF"/>
<path d="M741.244 32.408L742.156 30.856C742.636 31.2293 743.063 31.416 743.436 31.416C743.937 31.416 744.316 31.0853 744.572 30.424L740.124 21.64H742.396L744.812 26.712L745.452 28.216H745.484C745.623 27.7147 745.777 27.2187 745.948 26.728L747.772 21.64H749.932L746.428 30.616C746.289 30.968 746.145 31.2773 745.996 31.544C745.847 31.8107 745.655 32.0773 745.42 32.344C745.185 32.6107 744.908 32.8187 744.588 32.968C744.268 33.1173 743.911 33.192 743.516 33.192C742.748 33.192 741.991 32.9307 741.244 32.408ZM752.595 31.224H757.107V23.416H754.067V24.264C754.067 27.3147 753.576 29.6347 752.595 31.224ZM749.315 31.224H750.467C751.566 29.56 752.115 27.192 752.115 24.12V21.64H759.171V31.224H760.435V35.24H758.595V33H751.219V35.24H749.315V31.224ZM761.563 27.24C761.563 25.608 762.123 24.2373 763.243 23.128C764.374 22.008 765.771 21.448 767.435 21.448C769.099 21.448 770.491 22.008 771.611 23.128C772.742 24.2373 773.307 25.608 773.307 27.24C773.307 28.9147 772.742 30.328 771.611 31.48C770.491 32.6213 769.099 33.192 767.435 33.192C765.771 33.192 764.374 32.6213 763.243 31.48C762.123 30.328 761.563 28.9147 761.563 27.24ZM763.691 27.24C763.691 28.392 764.054 29.3573 764.779 30.136C765.505 30.9147 766.39 31.304 767.435 31.304C768.481 31.304 769.366 30.9147 770.091 30.136C770.817 29.3573 771.179 28.392 771.179 27.24C771.179 26.1413 770.817 25.2187 770.091 24.472C769.366 23.7147 768.481 23.336 767.435 23.336C766.39 23.336 765.505 23.7147 764.779 24.472C764.054 25.2187 763.691 26.1413 763.691 27.24ZM774.736 27.272C774.736 25.608 775.285 24.2213 776.384 23.112C777.482 22.0027 778.88 21.448 780.576 21.448C782.304 21.448 783.701 21.9653 784.768 23L783.776 24.536C783.36 24.184 782.869 23.896 782.304 23.672C781.749 23.448 781.205 23.336 780.672 23.336C779.477 23.336 778.544 23.7093 777.872 24.456C777.2 25.2027 776.864 26.1307 776.864 27.24C776.864 28.36 777.205 29.32 777.888 30.12C778.57 30.9093 779.504 31.304 780.688 31.304C781.904 31.304 783.002 30.824 783.984 29.864L785.072 31.352C783.866 32.5787 782.378 33.192 780.608 33.192C778.848 33.192 777.429 32.632 776.352 31.512C775.274 30.392 774.736 28.9787 774.736 27.272ZM789.421 33V23.416H785.693V21.64H795.197V23.416H791.469V33H789.421ZM795.735 27.24C795.735 25.608 796.295 24.2373 797.415 23.128C798.546 22.008 799.943 21.448 801.607 21.448C803.271 21.448 804.663 22.008 805.783 23.128C806.914 24.2373 807.479 25.608 807.479 27.24C807.479 28.9147 806.914 30.328 805.783 31.48C804.663 32.6213 803.271 33.192 801.607 33.192C799.943 33.192 798.546 32.6213 797.415 31.48C796.295 30.328 795.735 28.9147 795.735 27.24ZM797.863 27.24C797.863 28.392 798.226 29.3573 798.951 30.136C799.677 30.9147 800.562 31.304 801.607 31.304C802.653 31.304 803.538 30.9147 804.263 30.136C804.989 29.3573 805.351 28.392 805.351 27.24C805.351 26.1413 804.989 25.2187 804.263 24.472C803.538 23.7147 802.653 23.336 801.607 23.336C800.562 23.336 799.677 23.7147 798.951 24.472C798.226 25.2187 797.863 26.1413 797.863 27.24ZM809.564 33V21.64H813.612C814.668 21.64 815.516 21.9013 816.156 22.424C816.806 22.936 817.132 23.6507 817.132 24.568C817.132 25.1013 817.009 25.5813 816.764 26.008C816.518 26.4347 816.182 26.7653 815.756 27V27.032C816.353 27.2027 816.806 27.5387 817.116 28.04C817.436 28.5413 817.595 29.096 817.595 29.704C817.595 30.7813 817.222 31.6027 816.476 32.168C815.729 32.7227 814.796 33 813.676 33H809.564ZM811.628 26.28H813.628C814.065 26.28 814.406 26.1467 814.652 25.88C814.908 25.6027 815.036 25.2507 815.036 24.824C815.036 24.408 814.908 24.072 814.652 23.816C814.406 23.5493 814.054 23.416 813.596 23.416H811.628V26.28ZM811.628 31.224H813.836C814.348 31.224 814.748 31.0747 815.036 30.776C815.334 30.4667 815.484 30.0667 815.484 29.576C815.484 29.096 815.334 28.7067 815.036 28.408C814.748 28.0987 814.348 27.944 813.836 27.944H811.628V31.224ZM819.689 33V21.64H826.489V23.416H821.753V26.392H825.577V28.168H821.753V31.224H826.745V33H819.689ZM828.798 33V21.64H833.182C834.249 21.64 835.118 21.9813 835.79 22.664C836.462 23.3467 836.798 24.2373 836.798 25.336C836.798 26.4347 836.462 27.336 835.79 28.04C835.118 28.7333 834.249 29.08 833.182 29.08H830.862V33H828.798ZM830.862 27.288H832.798C833.395 27.288 833.859 27.112 834.19 26.76C834.531 26.408 834.702 25.9333 834.702 25.336C834.702 24.7493 834.531 24.2853 834.19 23.944C833.859 23.592 833.406 23.416 832.83 23.416H830.862V27.288ZM838.595 33V21.64H845.395V23.416H840.659V26.392H844.483V28.168H840.659V31.224H845.651V33H838.595ZM847.704 33V21.64H849.768V26.456H854.968V21.64H857.016V33H854.968V28.232H849.768V33H847.704ZM859.767 33V21.64H861.831V28.2L861.719 29.96H861.751C862.113 29.224 862.433 28.632 862.711 28.184L866.999 21.64H869.047V33H866.999V26.456L867.111 24.696H867.079C866.727 25.4213 866.412 26.008 866.135 26.456L861.815 33H859.767ZM871.814 33V21.64H878.614V23.416H873.878V26.392H877.702V28.168H873.878V31.224H878.87V33H871.814ZM884.251 27.24C884.251 25.608 884.811 24.2373 885.931 23.128C887.062 22.008 888.459 21.448 890.123 21.448C891.787 21.448 893.179 22.008 894.299 23.128C895.43 24.2373 895.995 25.608 895.995 27.24C895.995 28.9147 895.43 30.328 894.299 31.48C893.179 32.6213 891.787 33.192 890.123 33.192C888.459 33.192 887.062 32.6213 885.931 31.48C884.811 30.328 884.251 28.9147 884.251 27.24ZM886.379 27.24C886.379 28.392 886.742 29.3573 887.467 30.136C888.192 30.9147 889.078 31.304 890.123 31.304C891.168 31.304 892.054 30.9147 892.779 30.136C893.504 29.3573 893.867 28.392 893.867 27.24C893.867 26.1413 893.504 25.2187 892.779 24.472C892.054 23.7147 891.168 23.336 890.123 23.336C889.078 23.336 888.192 23.7147 887.467 24.472C886.742 25.2187 886.379 26.1413 886.379 27.24ZM902.079 33V21.64H911.279V33H909.215V23.416H904.143V33H902.079ZM913.36 27.24C913.36 25.608 913.92 24.2373 915.04 23.128C916.171 22.008 917.568 21.448 919.232 21.448C920.896 21.448 922.288 22.008 923.408 23.128C924.539 24.2373 925.104 25.608 925.104 27.24C925.104 28.9147 924.539 30.328 923.408 31.48C922.288 32.6213 920.896 33.192 919.232 33.192C917.568 33.192 916.171 32.6213 915.04 31.48C913.92 30.328 913.36 28.9147 913.36 27.24ZM915.488 27.24C915.488 28.392 915.851 29.3573 916.576 30.136C917.302 30.9147 918.187 31.304 919.232 31.304C920.278 31.304 921.163 30.9147 921.888 30.136C922.614 29.3573 922.976 28.392 922.976 27.24C922.976 26.1413 922.614 25.2187 921.888 24.472C921.163 23.7147 920.278 23.336 919.232 23.336C918.187 23.336 917.302 23.7147 916.576 24.472C915.851 25.2187 915.488 26.1413 915.488 27.24ZM927.189 33V21.64H931.237C932.293 21.64 933.141 21.9013 933.781 22.424C934.431 22.936 934.757 23.6507 934.757 24.568C934.757 25.1013 934.634 25.5813 934.389 26.008C934.143 26.4347 933.807 26.7653 933.381 27V27.032C933.978 27.2027 934.431 27.5387 934.741 28.04C935.061 28.5413 935.22 29.096 935.22 29.704C935.22 30.7813 934.847 31.6027 934.101 32.168C933.354 32.7227 932.421 33 931.301 33H927.189ZM929.253 26.28H931.253C931.69 26.28 932.031 26.1467 932.277 25.88C932.533 25.6027 932.661 25.2507 932.661 24.824C932.661 24.408 932.533 24.072 932.277 23.816C932.031 23.5493 931.679 23.416 931.221 23.416H929.253V26.28ZM929.253 31.224H931.461C931.973 31.224 932.373 31.0747 932.661 30.776C932.959 30.4667 933.109 30.0667 933.109 29.576C933.109 29.096 932.959 28.7067 932.661 28.408C932.373 28.0987 931.973 27.944 931.461 27.944H929.253V31.224ZM946.514 33V21.64H948.562V33H946.514ZM937.314 33V21.64H939.378V25.624H941.49C942.546 25.624 943.399 25.9653 944.05 26.648C944.711 27.32 945.042 28.216 945.042 29.336C945.042 30.424 944.716 31.3093 944.066 31.992C943.415 32.664 942.572 33 941.538 33H937.314ZM939.378 31.224H941.17C941.735 31.224 942.172 31.0587 942.482 30.728C942.791 30.3867 942.946 29.9227 942.946 29.336C942.946 28.7493 942.786 28.28 942.466 27.928C942.146 27.576 941.703 27.4 941.138 27.4H939.378V31.224ZM951.329 33V21.64H953.393V31.224H957.057V21.64H959.121V31.224H962.785V21.64H964.833V33H951.329ZM967.595 33V21.64H974.395V23.416H969.659V26.392H973.483V28.168H969.659V31.224H974.651V33H967.595ZM976.704 33V21.64H978.768V26.456H983.968V21.64H986.016V33H983.968V28.232H978.768V33H976.704ZM988.767 33V21.64H990.831V28.2L990.719 29.96H990.751C991.113 29.224 991.433 28.632 991.711 28.184L995.999 21.64H998.047V33H995.999V26.456L996.111 24.696H996.079C995.727 25.4213 995.412 26.008 995.135 26.456L990.815 33H988.767ZM1000.81 33V21.64H1002.88V28.2L1002.77 29.96H1002.8C1003.16 29.224 1003.48 28.632 1003.76 28.184L1008.05 21.64H1010.09V33H1008.05V26.456L1008.16 24.696H1008.13C1007.77 25.4213 1007.46 26.008 1007.18 26.456L1002.86 33H1000.81ZM1016.86 33V21.64H1018.92V26.264H1020.4L1023.07 21.64H1025.31L1022.09 27.048V27.08L1025.5 33H1023.16L1020.4 28.04H1018.92V33H1016.86ZM1027.06 33V21.64H1031.11C1032.17 21.64 1033.02 21.9013 1033.66 22.424C1034.31 22.936 1034.63 23.6507 1034.63 24.568C1034.63 25.1013 1034.51 25.5813 1034.26 26.008C1034.02 26.4347 1033.68 26.7653 1033.26 27V27.032C1033.85 27.2027 1034.31 27.5387 1034.62 28.04C1034.94 28.5413 1035.1 29.096 1035.1 29.704C1035.1 30.7813 1034.72 31.6027 1033.98 32.168C1033.23 32.7227 1032.3 33 1031.18 33H1027.06ZM1029.13 26.28H1031.13C1031.56 26.28 1031.91 26.1467 1032.15 25.88C1032.41 25.6027 1032.54 25.2507 1032.54 24.824C1032.54 24.408 1032.41 24.072 1032.15 23.816C1031.91 23.5493 1031.55 23.416 1031.1 23.416H1029.13V26.28ZM1029.13 31.224H1031.34C1031.85 31.224 1032.25 31.0747 1032.54 30.776C1032.83 30.4667 1032.98 30.0667 1032.98 29.576C1032.98 29.096 1032.83 28.7067 1032.54 28.408C1032.25 28.0987 1031.85 27.944 1031.34 27.944H1029.13V31.224ZM1035.82 33L1039.8 21.64H1041.98L1045.96 33H1043.85L1042.87 30.088H1038.89L1037.93 33H1035.82ZM1039.4 28.408H1042.36L1041.35 25.368L1040.9 23.608H1040.87C1040.7 24.3547 1040.55 24.9413 1040.42 25.368L1039.4 28.408ZM1046.32 31.24C1047.17 31.1227 1047.79 30.5573 1048.17 29.544C1048.57 28.52 1048.77 26.92 1048.77 24.744V21.64H1055.79V33H1053.73V23.416H1050.73V24.776C1050.73 27.5707 1050.39 29.6507 1049.69 31.016C1049 32.3707 1047.88 33.0747 1046.32 33.128V31.24ZM1058.55 33V21.64H1060.61V28.2L1060.5 29.96H1060.53C1060.89 29.224 1061.21 28.632 1061.49 28.184L1065.78 21.64H1067.83V33H1065.78V26.456L1065.89 24.696H1065.86C1065.51 25.4213 1065.19 26.008 1064.92 26.456L1060.6 33H1058.55ZM1069.75 26.952C1069.75 25.5653 1070.23 24.4347 1071.19 23.56C1072.16 22.6853 1073.41 22.248 1074.95 22.248V21H1077.01V22.248C1078.55 22.248 1079.79 22.6853 1080.75 23.56C1081.73 24.4347 1082.21 25.5653 1082.21 26.952C1082.21 28.3707 1081.73 29.528 1080.77 30.424C1079.81 31.3093 1078.56 31.752 1077.01 31.752V33.192H1074.95V31.752C1073.41 31.752 1072.16 31.304 1071.19 30.408C1070.23 29.512 1069.75 28.36 1069.75 26.952ZM1077.01 30.024C1077.93 30.024 1078.67 29.7413 1079.25 29.176C1079.83 28.6 1080.11 27.8587 1080.11 26.952C1080.11 26.0667 1079.83 25.352 1079.25 24.808C1078.67 24.2533 1077.93 23.976 1077.01 23.976V30.024ZM1071.86 26.952C1071.86 27.8587 1072.14 28.6 1072.71 29.176C1073.28 29.7413 1074.03 30.024 1074.95 30.024V23.976C1074.03 23.976 1073.28 24.2533 1072.71 24.808C1072.14 25.352 1071.86 26.0667 1071.86 26.952ZM1084.11 33V21.64H1086.17V28.2L1086.06 29.96H1086.09C1086.46 29.224 1086.78 28.632 1087.05 28.184L1091.34 21.64H1093.39V33H1091.34V26.456L1091.45 24.696H1091.42C1091.07 25.4213 1090.76 26.008 1090.48 26.456L1086.16 33H1084.11ZM1096.16 33V21.64H1098.22V26.264H1099.69L1102.37 21.64H1104.61L1101.39 27.048V27.08L1104.8 33H1102.46L1099.69 28.04H1098.22V33H1096.16ZM1105.11 33L1109.1 21.64H1111.27L1115.26 33H1113.14L1112.17 30.088H1108.18L1107.22 33H1105.11ZM1108.7 28.408H1111.66L1110.65 25.368L1110.2 23.608H1110.17C1110 24.3547 1109.85 24.9413 1109.72 25.368L1108.7 28.408ZM1116.77 33V21.64H1118.83V31.224H1123.74V21.64H1125.81V31.224H1127.15V35.24H1125.31V33H1116.77ZM1129.11 33V21.64H1131.17V28.2L1131.06 29.96H1131.09C1131.46 29.224 1131.78 28.632 1132.05 28.184L1136.34 21.64H1138.39V33H1136.34V26.456L1136.45 24.696H1136.42C1136.07 25.4213 1135.76 26.008 1135.48 26.456L1131.16 33H1129.11ZM1141.16 33V21.64H1143.22V28.2L1143.11 29.96H1143.14C1143.5 29.224 1143.82 28.632 1144.1 28.184L1148.39 21.64H1150.44V33H1148.39V26.456L1148.5 24.696H1148.47C1148.12 25.4213 1147.8 26.008 1147.53 26.456L1143.21 33H1141.16Z" fill="#005DFF"/>
<rect x="1186" width="148" height="55" rx="27.5" fill="#F3F6FF"/>
<path d="M1211.71 33V21.64H1218.69V23.416H1213.78V26.04H1216.05C1217.1 26.04 1217.96 26.36 1218.61 27C1219.27 27.6293 1219.6 28.4773 1219.6 29.544C1219.6 30.568 1219.27 31.4 1218.62 32.04C1217.97 32.68 1217.13 33 1216.1 33H1211.71ZM1213.78 31.224H1215.73C1216.29 31.224 1216.73 31.0747 1217.04 30.776C1217.35 30.4773 1217.5 30.0667 1217.5 29.544C1217.5 29.0213 1217.34 28.6053 1217.02 28.296C1216.7 27.976 1216.26 27.816 1215.7 27.816H1213.78V31.224ZM1220.23 33L1224.21 21.64H1226.39L1230.37 33H1228.26L1227.29 30.088H1223.3L1222.34 33H1220.23ZM1223.81 28.408H1226.77L1225.77 25.368L1225.32 23.608H1225.29C1225.11 24.3547 1224.97 24.9413 1224.84 25.368L1223.81 28.408ZM1230.73 31.24C1231.59 31.1227 1232.2 30.5573 1232.59 29.544C1232.98 28.52 1233.18 26.92 1233.18 24.744V21.64H1240.2V33H1238.14V23.416H1235.15V24.776C1235.15 27.5707 1234.8 29.6507 1234.11 31.016C1233.41 32.3707 1232.29 33.0747 1230.73 33.128V31.24ZM1241.81 31.24C1242.66 31.1227 1243.28 30.5573 1243.67 29.544C1244.06 28.52 1244.26 26.92 1244.26 24.744V21.64H1251.28V33H1249.22V23.416H1246.23V24.776C1246.23 27.5707 1245.88 29.6507 1245.19 31.016C1244.49 32.3707 1243.37 33.0747 1241.81 33.128V31.24ZM1263.24 33V21.64H1265.29V33H1263.24ZM1254.04 33V21.64H1256.1V25.624H1258.22C1259.27 25.624 1260.13 25.9653 1260.78 26.648C1261.44 27.32 1261.77 28.216 1261.77 29.336C1261.77 30.424 1261.44 31.3093 1260.79 31.992C1260.14 32.664 1259.3 33 1258.26 33H1254.04ZM1256.1 31.224H1257.9C1258.46 31.224 1258.9 31.0587 1259.21 30.728C1259.52 30.3867 1259.67 29.9227 1259.67 29.336C1259.67 28.7493 1259.51 28.28 1259.19 27.928C1258.87 27.576 1258.43 27.4 1257.86 27.4H1256.1V31.224ZM1272.06 33V21.64H1274.12V26.456H1279.32V21.64H1281.37V33H1279.32V28.232H1274.12V33H1272.06ZM1283.69 33L1284.61 21.64H1286.81L1289.05 27.256L1289.61 28.92H1289.64C1289.84 28.2587 1290.03 27.704 1290.2 27.256L1292.44 21.64H1294.63L1295.56 33H1293.49L1293.03 26.648C1293.01 26.424 1293 26.168 1293 25.88C1293 25.5813 1293 25.3413 1293.01 25.16V24.888H1292.98C1292.74 25.624 1292.53 26.2107 1292.36 26.648L1290.52 31.048H1288.73L1286.89 26.648L1286.26 24.872H1286.23C1286.26 25.5547 1286.26 26.1467 1286.21 26.648L1285.75 33H1283.69ZM1297.21 27.24C1297.21 25.608 1297.77 24.2373 1298.89 23.128C1300.02 22.008 1301.42 21.448 1303.08 21.448C1304.75 21.448 1306.14 22.008 1307.26 23.128C1308.39 24.2373 1308.96 25.608 1308.96 27.24C1308.96 28.9147 1308.39 30.328 1307.26 31.48C1306.14 32.6213 1304.75 33.192 1303.08 33.192C1301.42 33.192 1300.02 32.6213 1298.89 31.48C1297.77 30.328 1297.21 28.9147 1297.21 27.24ZM1299.34 27.24C1299.34 28.392 1299.7 29.3573 1300.43 30.136C1301.15 30.9147 1302.04 31.304 1303.08 31.304C1304.13 31.304 1305.01 30.9147 1305.74 30.136C1306.47 29.3573 1306.83 28.392 1306.83 27.24C1306.83 26.1413 1306.47 25.2187 1305.74 24.472C1305.01 23.7147 1304.13 23.336 1303.08 23.336C1302.04 23.336 1301.15 23.7147 1300.43 24.472C1299.7 25.2187 1299.34 26.1413 1299.34 27.24Z" fill="#666666"/>
<rect x="1344" width="212" height="55" rx="27.5" fill="#F3F6FF"/>
<path d="M1369.6 33V21.64H1378.8V33H1376.74V23.416H1371.67V33H1369.6ZM1380.88 27.24C1380.88 25.608 1381.44 24.2373 1382.56 23.128C1383.69 22.008 1385.09 21.448 1386.76 21.448C1388.42 21.448 1389.81 22.008 1390.93 23.128C1392.06 24.2373 1392.63 25.608 1392.63 27.24C1392.63 28.9147 1392.06 30.328 1390.93 31.48C1389.81 32.6213 1388.42 33.192 1386.76 33.192C1385.09 33.192 1383.69 32.6213 1382.56 31.48C1381.44 30.328 1380.88 28.9147 1380.88 27.24ZM1383.01 27.24C1383.01 28.392 1383.37 29.3573 1384.1 30.136C1384.83 30.9147 1385.71 31.304 1386.76 31.304C1387.8 31.304 1388.69 30.9147 1389.41 30.136C1390.14 29.3573 1390.5 28.392 1390.5 27.24C1390.5 26.1413 1390.14 25.2187 1389.41 24.472C1388.69 23.7147 1387.8 23.336 1386.76 23.336C1385.71 23.336 1384.83 23.7147 1384.1 24.472C1383.37 25.2187 1383.01 26.1413 1383.01 27.24ZM1394.28 33L1395.21 21.64H1397.4L1399.64 27.256L1400.2 28.92H1400.23C1400.43 28.2587 1400.62 27.704 1400.79 27.256L1403.03 21.64H1405.22L1406.15 33H1404.09L1403.62 26.648C1403.6 26.424 1403.59 26.168 1403.59 25.88C1403.59 25.5813 1403.6 25.3413 1403.61 25.16V24.888H1403.58C1403.33 25.624 1403.12 26.2107 1402.95 26.648L1401.11 31.048H1399.32L1397.48 26.648L1396.86 24.872H1396.82C1396.86 25.5547 1396.85 26.1467 1396.81 26.648L1396.34 33H1394.28ZM1407.81 27.24C1407.81 25.608 1408.37 24.2373 1409.49 23.128C1410.62 22.008 1412.01 21.448 1413.68 21.448C1415.34 21.448 1416.73 22.008 1417.85 23.128C1418.98 24.2373 1419.55 25.608 1419.55 27.24C1419.55 28.9147 1418.98 30.328 1417.85 31.48C1416.73 32.6213 1415.34 33.192 1413.68 33.192C1412.01 33.192 1410.62 32.6213 1409.49 31.48C1408.37 30.328 1407.81 28.9147 1407.81 27.24ZM1409.93 27.24C1409.93 28.392 1410.3 29.3573 1411.02 30.136C1411.75 30.9147 1412.63 31.304 1413.68 31.304C1414.72 31.304 1415.61 30.9147 1416.33 30.136C1417.06 29.3573 1417.42 28.392 1417.42 27.24C1417.42 26.1413 1417.06 25.2187 1416.33 24.472C1415.61 23.7147 1414.72 23.336 1413.68 23.336C1412.63 23.336 1411.75 23.7147 1411.02 24.472C1410.3 25.2187 1409.93 26.1413 1409.93 27.24ZM1421.63 33V21.64H1423.7V31.224H1427.36V21.64H1429.43V31.224H1433.09V21.64H1435.14V31.224H1436.55V35.24H1434.69V33H1421.63ZM1438.48 33V21.64H1440.54V25.624H1442.77C1443.81 25.624 1444.66 25.9653 1445.33 26.648C1445.99 27.32 1446.32 28.216 1446.32 29.336C1446.32 30.424 1445.99 31.3093 1445.34 31.992C1444.69 32.664 1443.84 33 1442.8 33H1438.48ZM1440.54 31.224H1442.43C1442.99 31.224 1443.43 31.0587 1443.74 30.728C1444.06 30.3867 1444.22 29.9227 1444.22 29.336C1444.22 28.7493 1444.06 28.28 1443.73 27.928C1443.41 27.576 1442.96 27.4 1442.4 27.4H1440.54V31.224ZM1452.12 33V21.64H1454.18V26.264H1455.65L1458.33 21.64H1460.57L1457.35 27.048V27.08L1460.76 33H1458.42L1455.65 28.04H1454.18V33H1452.12ZM1462.02 32.408L1462.93 30.856C1463.41 31.2293 1463.84 31.416 1464.21 31.416C1464.71 31.416 1465.09 31.0853 1465.35 30.424L1460.9 21.64H1463.17L1465.59 26.712L1466.23 28.216H1466.26C1466.4 27.7147 1466.55 27.2187 1466.72 26.728L1468.55 21.64H1470.71L1467.2 30.616C1467.06 30.968 1466.92 31.2773 1466.77 31.544C1466.62 31.8107 1466.43 32.0773 1466.19 32.344C1465.96 32.6107 1465.68 32.8187 1465.36 32.968C1465.04 33.1173 1464.68 33.192 1464.29 33.192C1463.52 33.192 1462.76 32.9307 1462.02 32.408ZM1472.12 33V21.64H1476.5C1477.57 21.64 1478.44 21.9813 1479.11 22.664C1479.78 23.3467 1480.12 24.2373 1480.12 25.336C1480.12 26.4347 1479.78 27.336 1479.11 28.04C1478.44 28.7333 1477.57 29.08 1476.5 29.08H1474.18V33H1472.12ZM1474.18 27.288H1476.12C1476.72 27.288 1477.18 27.112 1477.51 26.76C1477.85 26.408 1478.02 25.9333 1478.02 25.336C1478.02 24.7493 1477.85 24.2853 1477.51 23.944C1477.18 23.592 1476.73 23.416 1476.15 23.416H1474.18V27.288ZM1480.09 33L1484.07 21.64H1486.25L1490.23 33H1488.12L1487.14 30.088H1483.16L1482.2 33H1480.09ZM1483.67 28.408H1486.63L1485.62 25.368L1485.18 23.608H1485.14C1484.97 24.3547 1484.82 24.9413 1484.7 25.368L1483.67 28.408ZM1493.38 33V23.416H1489.65V21.64H1499.16V23.416H1495.43V33H1493.38ZM1499.7 27.24C1499.7 25.608 1500.26 24.2373 1501.38 23.128C1502.51 22.008 1503.9 21.448 1505.57 21.448C1507.23 21.448 1508.62 22.008 1509.74 23.128C1510.87 24.2373 1511.44 25.608 1511.44 27.24C1511.44 28.9147 1510.87 30.328 1509.74 31.48C1508.62 32.6213 1507.23 33.192 1505.57 33.192C1503.9 33.192 1502.51 32.6213 1501.38 31.48C1500.26 30.328 1499.7 28.9147 1499.7 27.24ZM1501.82 27.24C1501.82 28.392 1502.19 29.3573 1502.91 30.136C1503.64 30.9147 1504.52 31.304 1505.57 31.304C1506.61 31.304 1507.5 30.9147 1508.22 30.136C1508.95 29.3573 1509.31 28.392 1509.31 27.24C1509.31 26.1413 1508.95 25.2187 1508.22 24.472C1507.5 23.7147 1506.61 23.336 1505.57 23.336C1504.52 23.336 1503.64 23.7147 1502.91 24.472C1502.19 25.2187 1501.82 26.1413 1501.82 27.24ZM1513.52 33V21.64H1517.91C1518.98 21.64 1519.84 21.9813 1520.52 22.664C1521.19 23.3467 1521.52 24.2373 1521.52 25.336C1521.52 26.4347 1521.19 27.336 1520.52 28.04C1519.84 28.7333 1518.98 29.08 1517.91 29.08H1515.59V33H1513.52ZM1515.59 27.288H1517.52C1518.12 27.288 1518.59 27.112 1518.92 26.76C1519.26 26.408 1519.43 25.9333 1519.43 25.336C1519.43 24.7493 1519.26 24.2853 1518.92 23.944C1518.59 23.592 1518.13 23.416 1517.56 23.416H1515.59V27.288ZM1521.5 33L1525.48 21.64H1527.66L1531.64 33H1529.53L1528.55 30.088H1524.57L1523.61 33H1521.5ZM1525.08 28.408H1528.04L1527.03 25.368L1526.58 23.608H1526.55C1526.38 24.3547 1526.23 24.9413 1526.1 25.368L1525.08 28.408Z" fill="#005DFF"/>
<rect x="1566" width="177" height="55" rx="27.5" fill="#F3F6FF"/>
<path d="M1591.84 33V21.64H1593.91V26.456H1599.11V21.64H1601.16V33H1599.11V28.232H1593.91V33H1591.84ZM1603.24 27.24C1603.24 25.608 1603.8 24.2373 1604.92 23.128C1606.05 22.008 1607.44 21.448 1609.11 21.448C1610.77 21.448 1612.16 22.008 1613.28 23.128C1614.41 24.2373 1614.98 25.608 1614.98 27.24C1614.98 28.9147 1614.41 30.328 1613.28 31.48C1612.16 32.6213 1610.77 33.192 1609.11 33.192C1607.44 33.192 1606.05 32.6213 1604.92 31.48C1603.8 30.328 1603.24 28.9147 1603.24 27.24ZM1605.36 27.24C1605.36 28.392 1605.73 29.3573 1606.45 30.136C1607.18 30.9147 1608.06 31.304 1609.11 31.304C1610.15 31.304 1611.04 30.9147 1611.76 30.136C1612.49 29.3573 1612.85 28.392 1612.85 27.24C1612.85 26.1413 1612.49 25.2187 1611.76 24.472C1611.04 23.7147 1610.15 23.336 1609.11 23.336C1608.06 23.336 1607.18 23.7147 1606.45 24.472C1605.73 25.2187 1605.36 26.1413 1605.36 27.24ZM1617.06 33V21.64H1621.11C1622.17 21.64 1623.02 21.9013 1623.66 22.424C1624.31 22.936 1624.63 23.6507 1624.63 24.568C1624.63 25.1013 1624.51 25.5813 1624.26 26.008C1624.02 26.4347 1623.68 26.7653 1623.26 27V27.032C1623.85 27.2027 1624.31 27.5387 1624.62 28.04C1624.94 28.5413 1625.1 29.096 1625.1 29.704C1625.1 30.7813 1624.72 31.6027 1623.98 32.168C1623.23 32.7227 1622.3 33 1621.18 33H1617.06ZM1619.13 26.28H1621.13C1621.56 26.28 1621.91 26.1467 1622.15 25.88C1622.41 25.6027 1622.54 25.2507 1622.54 24.824C1622.54 24.408 1622.41 24.072 1622.15 23.816C1621.91 23.5493 1621.55 23.416 1621.1 23.416H1619.13V26.28ZM1619.13 31.224H1621.34C1621.85 31.224 1622.25 31.0747 1622.54 30.776C1622.83 30.4667 1622.98 30.0667 1622.98 29.576C1622.98 29.096 1622.83 28.7067 1622.54 28.408C1622.25 28.0987 1621.85 27.944 1621.34 27.944H1619.13V31.224ZM1636.39 33V21.64H1638.44V33H1636.39ZM1627.19 33V21.64H1629.25V25.624H1631.36C1632.42 25.624 1633.27 25.9653 1633.92 26.648C1634.59 27.32 1634.92 28.216 1634.92 29.336C1634.92 30.424 1634.59 31.3093 1633.94 31.992C1633.29 32.664 1632.45 33 1631.41 33H1627.19ZM1629.25 31.224H1631.04C1631.61 31.224 1632.05 31.0587 1632.36 30.728C1632.67 30.3867 1632.82 29.9227 1632.82 29.336C1632.82 28.7493 1632.66 28.28 1632.34 27.928C1632.02 27.576 1631.58 27.4 1631.01 27.4H1629.25V31.224ZM1641.2 33V21.64H1648V23.416H1643.27V26.392H1647.09V28.168H1643.27V31.224H1648.26V33H1641.2ZM1653.29 31.576L1654.41 30.2C1654.72 30.5307 1655.1 30.808 1655.56 31.032C1656.02 31.256 1656.49 31.368 1656.97 31.368C1657.59 31.368 1658.08 31.2133 1658.44 30.904C1658.8 30.5947 1658.99 30.168 1658.99 29.624C1658.99 29.1333 1658.82 28.7493 1658.49 28.472C1658.17 28.184 1657.73 28.04 1657.18 28.04H1655.79V26.376H1656.91C1657.42 26.376 1657.84 26.2267 1658.17 25.928C1658.5 25.6293 1658.67 25.256 1658.67 24.808C1658.67 24.3493 1658.52 23.976 1658.22 23.688C1657.92 23.3893 1657.49 23.24 1656.92 23.24C1656.06 23.24 1655.24 23.56 1654.46 24.2L1653.63 22.696C1654.63 21.864 1655.84 21.448 1657.27 21.448C1658.24 21.448 1659.07 21.7253 1659.74 22.28C1660.42 22.8347 1660.76 23.592 1660.76 24.552C1660.76 25.672 1660.24 26.5147 1659.19 27.08V27.112C1659.78 27.2933 1660.24 27.6133 1660.59 28.072C1660.93 28.5307 1661.1 29.0907 1661.1 29.752C1661.1 30.7973 1660.72 31.6347 1659.96 32.264C1659.21 32.8827 1658.28 33.192 1657.16 33.192C1656.44 33.192 1655.73 33.0533 1655.03 32.776C1654.35 32.488 1653.77 32.088 1653.29 31.576ZM1663.19 33V21.64H1665.25V26.456H1670.45V21.64H1672.5V33H1670.45V28.232H1665.25V33H1663.19ZM1674 33L1677.99 21.64H1680.16L1684.15 33H1682.04L1681.06 30.088H1677.08L1676.12 33H1674ZM1677.59 28.408H1680.55L1679.54 25.368L1679.09 23.608H1679.06C1678.89 24.3547 1678.74 24.9413 1678.61 25.368L1677.59 28.408ZM1685.66 33V21.64H1687.72V26.456H1692.92V21.64H1694.97V33H1692.92V28.232H1687.72V33H1685.66ZM1697.72 33V21.64H1699.78V28.2L1699.67 29.96H1699.7C1700.07 29.224 1700.39 28.632 1700.66 28.184L1704.95 21.64H1707V33H1704.95V26.456L1705.06 24.696H1705.03C1704.68 25.4213 1704.37 26.008 1704.09 26.456L1699.77 33H1697.72ZM1708.66 33L1711.06 29L1711.43 28.408V28.376C1710.76 28.0773 1710.25 27.64 1709.91 27.064C1709.58 26.488 1709.41 25.8267 1709.41 25.08C1709.41 24.312 1709.59 23.6613 1709.93 23.128C1710.28 22.584 1710.74 22.1893 1711.32 21.944C1711.79 21.7413 1712.51 21.64 1713.48 21.64H1717.16V33H1715.09V28.76H1713.43L1710.97 33H1708.66ZM1713.3 27.032H1715.09V23.416H1713.64C1713 23.416 1712.52 23.512 1712.21 23.704C1711.75 23.992 1711.51 24.4773 1711.51 25.16C1711.51 25.7573 1711.67 26.2213 1711.99 26.552C1712.31 26.872 1712.75 27.032 1713.3 27.032Z" fill="#666666"/>
</svg>
