<svg width="1708" height="55" viewBox="0 0 1708 55" fill="none" xmlns="http://www.w3.org/2000/svg">
<rect width="177" height="55" rx="27.5" fill="#F3F6FF"/>
<path d="M25.8448 33V21.64H27.9088V26.456H33.1088V21.64H35.1568V33H33.1088V28.232H27.9088V33H25.8448ZM37.2353 27.24C37.2353 25.608 37.7953 24.2373 38.9153 23.128C40.0459 22.008 41.4433 21.448 43.1073 21.448C44.7713 21.448 46.1633 22.008 47.2833 23.128C48.4139 24.2373 48.9793 25.608 48.9793 27.24C48.9793 28.9147 48.4139 30.328 47.2833 31.48C46.1633 32.6213 44.7713 33.192 43.1073 33.192C41.4433 33.192 40.0459 32.6213 38.9153 31.48C37.7953 30.328 37.2353 28.9147 37.2353 27.24ZM39.3633 27.24C39.3633 28.392 39.7259 29.3573 40.4513 30.136C41.1766 30.9147 42.0619 31.304 43.1073 31.304C44.1526 31.304 45.0379 30.9147 45.7633 30.136C46.4886 29.3573 46.8513 28.392 46.8513 27.24C46.8513 26.1413 46.4886 25.2187 45.7633 24.472C45.0379 23.7147 44.1526 23.336 43.1073 23.336C42.0619 23.336 41.1766 23.7147 40.4513 24.472C39.7259 25.2187 39.3633 26.1413 39.3633 27.24ZM51.0635 33V21.64H55.1115C56.1675 21.64 57.0155 21.9013 57.6555 22.424C58.3062 22.936 58.6315 23.6507 58.6315 24.568C58.6315 25.1013 58.5088 25.5813 58.2635 26.008C58.0182 26.4347 57.6822 26.7653 57.2555 27V27.032C57.8528 27.2027 58.3062 27.5387 58.6155 28.04C58.9355 28.5413 59.0955 29.096 59.0955 29.704C59.0955 30.7813 58.7222 31.6027 57.9755 32.168C57.2288 32.7227 56.2955 33 55.1755 33H51.0635ZM53.1275 26.28H55.1275C55.5648 26.28 55.9062 26.1467 56.1515 25.88C56.4075 25.6027 56.5355 25.2507 56.5355 24.824C56.5355 24.408 56.4075 24.072 56.1515 23.816C55.9062 23.5493 55.5542 23.416 55.0955 23.416H53.1275V26.28ZM53.1275 31.224H55.3355C55.8475 31.224 56.2475 31.0747 56.5355 30.776C56.8342 30.4667 56.9835 30.0667 56.9835 29.576C56.9835 29.096 56.8342 28.7067 56.5355 28.408C56.2475 28.0987 55.8475 27.944 55.3355 27.944H53.1275V31.224ZM70.3885 33V21.64H72.4365V33H70.3885ZM61.1885 33V21.64H63.2525V25.624H65.3645C66.4205 25.624 67.2738 25.9653 67.9245 26.648C68.5858 27.32 68.9165 28.216 68.9165 29.336C68.9165 30.424 68.5912 31.3093 67.9405 31.992C67.2898 32.664 66.4472 33 65.4125 33H61.1885ZM63.2525 31.224H65.0445C65.6098 31.224 66.0472 31.0587 66.3565 30.728C66.6658 30.3867 66.8205 29.9227 66.8205 29.336C66.8205 28.7493 66.6605 28.28 66.3405 27.928C66.0205 27.576 65.5778 27.4 65.0125 27.4H63.2525V31.224ZM75.2041 33V21.64H82.0041V23.416H77.2681V26.392H81.0921V28.168H77.2681V31.224H82.2601V33H75.2041ZM87.2895 31.576L88.4095 30.2C88.7188 30.5307 89.1028 30.808 89.5615 31.032C90.0202 31.256 90.4895 31.368 90.9695 31.368C91.5882 31.368 92.0788 31.2133 92.4415 30.904C92.8042 30.5947 92.9855 30.168 92.9855 29.624C92.9855 29.1333 92.8202 28.7493 92.4895 28.472C92.1695 28.184 91.7322 28.04 91.1775 28.04H89.7855V26.376H90.9055C91.4175 26.376 91.8388 26.2267 92.1695 25.928C92.5002 25.6293 92.6655 25.256 92.6655 24.808C92.6655 24.3493 92.5162 23.976 92.2175 23.688C91.9188 23.3893 91.4868 23.24 90.9215 23.24C90.0575 23.24 89.2362 23.56 88.4575 24.2L87.6255 22.696C88.6282 21.864 89.8442 21.448 91.2735 21.448C92.2442 21.448 93.0655 21.7253 93.7375 22.28C94.4202 22.8347 94.7615 23.592 94.7615 24.552C94.7615 25.672 94.2388 26.5147 93.1935 27.08V27.112C93.7802 27.2933 94.2442 27.6133 94.5855 28.072C94.9268 28.5307 95.0975 29.0907 95.0975 29.752C95.0975 30.7973 94.7188 31.6347 93.9615 32.264C93.2148 32.8827 92.2815 33.192 91.1615 33.192C90.4362 33.192 89.7268 33.0533 89.0335 32.776C88.3508 32.488 87.7695 32.088 87.2895 31.576ZM97.1885 33V21.64H99.2525V26.456H104.453V21.64H106.501V33H104.453V28.232H99.2525V33H97.1885ZM108.003 33L111.987 21.64H114.163L118.147 33H116.035L115.059 30.088H111.075L110.115 33H108.003ZM111.587 28.408H114.547L113.539 25.368L113.091 23.608H113.059C112.888 24.3547 112.739 24.9413 112.611 25.368L111.587 28.408ZM119.657 33V21.64H121.721V26.456H126.921V21.64H128.969V33H126.921V28.232H121.721V33H119.657ZM131.72 33V21.64H133.784V28.2L133.672 29.96H133.704C134.066 29.224 134.386 28.632 134.664 28.184L138.952 21.64H141V33H138.952V26.456L139.064 24.696H139.032C138.68 25.4213 138.365 26.008 138.088 26.456L133.768 33H131.72ZM142.663 33L145.063 29L145.431 28.408V28.376C144.759 28.0773 144.252 27.64 143.911 27.064C143.58 26.488 143.415 25.8267 143.415 25.08C143.415 24.312 143.585 23.6613 143.927 23.128C144.279 22.584 144.743 22.1893 145.319 21.944C145.788 21.7413 146.508 21.64 147.479 21.64H151.159V33H149.095V28.76H147.431L144.967 33H142.663ZM147.303 27.032H149.095V23.416H147.639C146.999 23.416 146.524 23.512 146.215 23.704C145.745 23.992 145.511 24.4773 145.511 25.16C145.511 25.7573 145.671 26.2213 145.991 26.552C146.311 26.872 146.748 27.032 147.303 27.032Z" fill="#005DFF"/>
<rect x="187" width="328" height="55" rx="27.5" fill="#F3F6FF"/>
<path d="M214.806 31.224H219.318V23.416H216.278V24.264C216.278 27.3147 215.787 29.6347 214.806 31.224ZM211.526 31.224H212.678C213.777 29.56 214.326 27.192 214.326 24.12V21.64H221.382V31.224H222.646V35.24H220.806V33H213.43V35.24H211.526V31.224ZM223.774 27.24C223.774 25.608 224.334 24.2373 225.454 23.128C226.585 22.008 227.982 21.448 229.646 21.448C231.31 21.448 232.702 22.008 233.822 23.128C234.953 24.2373 235.518 25.608 235.518 27.24C235.518 28.9147 234.953 30.328 233.822 31.48C232.702 32.6213 231.31 33.192 229.646 33.192C227.982 33.192 226.585 32.6213 225.454 31.48C224.334 30.328 223.774 28.9147 223.774 27.24ZM225.902 27.24C225.902 28.392 226.265 29.3573 226.99 30.136C227.716 30.9147 228.601 31.304 229.646 31.304C230.692 31.304 231.577 30.9147 232.302 30.136C233.028 29.3573 233.39 28.392 233.39 27.24C233.39 26.1413 233.028 25.2187 232.302 24.472C231.577 23.7147 230.692 23.336 229.646 23.336C228.601 23.336 227.716 23.7147 226.99 24.472C226.265 25.2187 225.902 26.1413 225.902 27.24ZM236.947 27.272C236.947 25.608 237.496 24.2213 238.595 23.112C239.693 22.0027 241.091 21.448 242.787 21.448C244.515 21.448 245.912 21.9653 246.979 23L245.987 24.536C245.571 24.184 245.08 23.896 244.515 23.672C243.96 23.448 243.416 23.336 242.883 23.336C241.688 23.336 240.755 23.7093 240.083 24.456C239.411 25.2027 239.075 26.1307 239.075 27.24C239.075 28.36 239.416 29.32 240.099 30.12C240.781 30.9093 241.715 31.304 242.899 31.304C244.115 31.304 245.213 30.824 246.195 29.864L247.283 31.352C246.077 32.5787 244.589 33.192 242.819 33.192C241.059 33.192 239.64 32.632 238.563 31.512C237.485 30.392 236.947 28.9787 236.947 27.272ZM251.632 33V23.416H247.904V21.64H257.408V23.416H253.68V33H251.632ZM258.72 32.408L259.632 30.856C260.112 31.2293 260.539 31.416 260.912 31.416C261.414 31.416 261.792 31.0853 262.048 30.424L257.6 21.64H259.872L262.288 26.712L262.928 28.216H262.96C263.099 27.7147 263.254 27.2187 263.424 26.728L265.248 21.64H267.408L263.904 30.616C263.766 30.968 263.622 31.2773 263.472 31.544C263.323 31.8107 263.131 32.0773 262.896 32.344C262.662 32.6107 262.384 32.8187 262.064 32.968C261.744 33.1173 261.387 33.192 260.992 33.192C260.224 33.192 259.467 32.9307 258.72 32.408ZM268.821 33V21.64H278.021V33H275.957V23.416H270.885V33H268.821ZM284.774 33V21.64H286.838V26.264H288.31L290.982 21.64H293.222L290.006 27.048V27.08L293.414 33H291.078L288.31 28.04H286.838V33H284.774ZM298.674 32.408L299.586 30.856C300.066 31.2293 300.492 31.416 300.866 31.416C301.367 31.416 301.746 31.0853 302.002 30.424L297.554 21.64H299.826L302.242 26.712L302.882 28.216H302.914C303.052 27.7147 303.207 27.2187 303.378 26.728L305.202 21.64H307.362L303.858 30.616C303.719 30.968 303.575 31.2773 303.426 31.544C303.276 31.8107 303.084 32.0773 302.85 32.344C302.615 32.6107 302.338 32.8187 302.018 32.968C301.698 33.1173 301.34 33.192 300.946 33.192C300.178 33.192 299.42 32.9307 298.674 32.408ZM311.606 28.776C310.444 28.776 309.574 28.4827 308.998 27.896C308.422 27.2987 308.134 26.456 308.134 25.368V21.64H310.23V24.904C310.23 26.2373 310.865 26.904 312.134 26.904C312.998 26.904 313.777 26.68 314.47 26.232V21.64H316.566V33H314.47V28.6L314.502 28.072H314.47C313.553 28.5413 312.598 28.776 311.606 28.776ZM319.337 33V21.64H326.137V23.416H321.401V26.392H325.225V28.168H321.401V31.224H326.393V33H319.337ZM328.446 33V21.64H335.422V23.416H330.51V26.04H332.782C333.838 26.04 334.692 26.36 335.342 27C336.004 27.6293 336.334 28.4773 336.334 29.544C336.334 30.568 336.009 31.4 335.358 32.04C334.708 32.68 333.865 33 332.83 33H328.446ZM330.51 31.224H332.462C333.028 31.224 333.465 31.0747 333.774 30.776C334.084 30.4773 334.238 30.0667 334.238 29.544C334.238 29.0213 334.078 28.6053 333.758 28.296C333.438 27.976 332.996 27.816 332.43 27.816H330.51V31.224ZM338.306 33V21.64H340.37V26.456H345.57V21.64H347.618V33H345.57V28.232H340.37V33H338.306ZM359.568 33V21.64H361.616V33H359.568ZM350.368 33V21.64H352.432V25.624H354.544C355.6 25.624 356.454 25.9653 357.104 26.648C357.766 27.32 358.096 28.216 358.096 29.336C358.096 30.424 357.771 31.3093 357.12 31.992C356.47 32.664 355.627 33 354.592 33H350.368ZM352.432 31.224H354.224C354.79 31.224 355.227 31.0587 355.536 30.728C355.846 30.3867 356 29.9227 356 29.336C356 28.7493 355.84 28.28 355.52 27.928C355.2 27.576 354.758 27.4 354.192 27.4H352.432V31.224ZM363.952 33L364.88 21.64H367.072L369.312 27.256L369.872 28.92H369.904C370.106 28.2587 370.293 27.704 370.464 27.256L372.704 21.64H374.896L375.824 33H373.76L373.296 26.648C373.274 26.424 373.264 26.168 373.264 25.88C373.264 25.5813 373.269 25.3413 373.28 25.16V24.888H373.248C373.002 25.624 372.794 26.2107 372.624 26.648L370.784 31.048H368.992L367.152 26.648L366.528 24.872H366.496C366.528 25.5547 366.522 26.1467 366.48 26.648L366.016 33H363.952ZM381.717 33L382.645 21.64H384.837L387.077 27.256L387.637 28.92H387.669C387.872 28.2587 388.059 27.704 388.229 27.256L390.469 21.64H392.661L393.589 33H391.525L391.061 26.648C391.04 26.424 391.029 26.168 391.029 25.88C391.029 25.5813 391.035 25.3413 391.045 25.16V24.888H391.013C390.768 25.624 390.56 26.2107 390.389 26.648L388.549 31.048H386.757L384.917 26.648L384.293 24.872H384.261C384.293 25.5547 384.288 26.1467 384.245 26.648L383.781 33H381.717ZM394.667 33L398.651 21.64H400.827L404.811 33H402.699L401.723 30.088H397.739L396.779 33H394.667ZM398.251 28.408H401.211L400.203 25.368L399.755 23.608H399.723C399.552 24.3547 399.403 24.9413 399.275 25.368L398.251 28.408ZM407.96 33V23.416H404.232V21.64H413.736V23.416H410.008V33H407.96ZM415.353 33V21.64H422.153V23.416H417.417V26.392H421.241V28.168H417.417V31.224H422.409V33H415.353ZM424.462 33V21.64H428.846C429.913 21.64 430.782 21.9813 431.454 22.664C432.126 23.3467 432.462 24.2373 432.462 25.336C432.462 26.4347 432.126 27.336 431.454 28.04C430.782 28.7333 429.913 29.08 428.846 29.08H426.526V33H424.462ZM426.526 27.288H428.462C429.059 27.288 429.523 27.112 429.854 26.76C430.195 26.408 430.366 25.9333 430.366 25.336C430.366 24.7493 430.195 24.2853 429.854 23.944C429.523 23.592 429.07 23.416 428.494 23.416H426.526V27.288ZM434.259 33V21.64H436.323V28.2L436.211 29.96H436.243C436.605 29.224 436.925 28.632 437.203 28.184L441.491 21.64H443.539V33H441.491V26.456L441.603 24.696H441.571C441.219 25.4213 440.904 26.008 440.627 26.456L436.307 33H434.259ZM445.058 33L449.042 21.64H451.218L455.202 33H453.09L452.114 30.088H448.13L447.17 33H445.058ZM448.642 28.408H451.602L450.594 25.368L450.146 23.608H450.114C449.943 24.3547 449.794 24.9413 449.666 25.368L448.642 28.408ZM455.56 31.24C456.413 31.1227 457.032 30.5573 457.416 29.544C457.811 28.52 458.008 26.92 458.008 24.744V21.64H465.032V33H462.968V23.416H459.976V24.776C459.976 27.5707 459.629 29.6507 458.936 31.016C458.243 32.3707 457.117 33.0747 455.56 33.128V31.24ZM466.542 33L470.526 21.64H472.702L476.686 33H474.574L473.598 30.088H469.614L468.654 33H466.542ZM470.126 28.408H473.086L472.078 25.368L471.63 23.608H471.598C471.427 24.3547 471.278 24.9413 471.15 25.368L470.126 28.408ZM477.764 33L478.692 21.64H480.884L483.124 27.256L483.684 28.92H483.716C483.919 28.2587 484.106 27.704 484.276 27.256L486.516 21.64H488.708L489.636 33H487.572L487.108 26.648C487.087 26.424 487.076 26.168 487.076 25.88C487.076 25.5813 487.082 25.3413 487.092 25.16V24.888H487.06C486.815 25.624 486.607 26.2107 486.436 26.648L484.596 31.048H482.804L480.964 26.648L480.34 24.872H480.308C480.34 25.5547 480.335 26.1467 480.292 26.648L479.828 33H477.764Z" fill="#666666"/>
<rect x="525" width="368" height="55" rx="27.5" fill="#F3F6FF"/>
<path d="M552.392 31.224H556.904V23.416H553.864V24.264C553.864 27.3147 553.373 29.6347 552.392 31.224ZM549.112 31.224H550.264C551.363 29.56 551.912 27.192 551.912 24.12V21.64H558.968V31.224H560.232V35.24H558.392V33H551.016V35.24H549.112V31.224ZM561.36 27.24C561.36 25.608 561.92 24.2373 563.04 23.128C564.171 22.008 565.568 21.448 567.232 21.448C568.896 21.448 570.288 22.008 571.408 23.128C572.539 24.2373 573.104 25.608 573.104 27.24C573.104 28.9147 572.539 30.328 571.408 31.48C570.288 32.6213 568.896 33.192 567.232 33.192C565.568 33.192 564.171 32.6213 563.04 31.48C561.92 30.328 561.36 28.9147 561.36 27.24ZM563.488 27.24C563.488 28.392 563.851 29.3573 564.576 30.136C565.302 30.9147 566.187 31.304 567.232 31.304C568.278 31.304 569.163 30.9147 569.888 30.136C570.614 29.3573 570.976 28.392 570.976 27.24C570.976 26.1413 570.614 25.2187 569.888 24.472C569.163 23.7147 568.278 23.336 567.232 23.336C566.187 23.336 565.302 23.7147 564.576 24.472C563.851 25.2187 563.488 26.1413 563.488 27.24ZM574.533 27.272C574.533 25.608 575.082 24.2213 576.181 23.112C577.279 22.0027 578.677 21.448 580.373 21.448C582.101 21.448 583.498 21.9653 584.565 23L583.573 24.536C583.157 24.184 582.666 23.896 582.101 23.672C581.546 23.448 581.002 23.336 580.469 23.336C579.274 23.336 578.341 23.7093 577.669 24.456C576.997 25.2027 576.661 26.1307 576.661 27.24C576.661 28.36 577.002 29.32 577.685 30.12C578.367 30.9093 579.301 31.304 580.485 31.304C581.701 31.304 582.799 30.824 583.781 29.864L584.869 31.352C583.663 32.5787 582.175 33.192 580.405 33.192C578.645 33.192 577.226 32.632 576.149 31.512C575.071 30.392 574.533 28.9787 574.533 27.272ZM589.218 33V23.416H585.49V21.64H594.994V23.416H591.266V33H589.218ZM596.306 32.408L597.218 30.856C597.698 31.2293 598.125 31.416 598.498 31.416C599 31.416 599.378 31.0853 599.634 30.424L595.186 21.64H597.458L599.874 26.712L600.514 28.216H600.546C600.685 27.7147 600.84 27.2187 601.01 26.728L602.834 21.64H604.994L601.49 30.616C601.352 30.968 601.208 31.2773 601.058 31.544C600.909 31.8107 600.717 32.0773 600.482 32.344C600.248 32.6107 599.97 32.8187 599.65 32.968C599.33 33.1173 598.973 33.192 598.578 33.192C597.81 33.192 597.053 32.9307 596.306 32.408ZM606.407 33V21.64H615.607V33H613.543V23.416H608.471V33H606.407ZM622.36 33V21.64H624.424V26.264H625.896L628.568 21.64H630.808L627.592 27.048V27.08L631 33H628.664L625.896 28.04H624.424V33H622.36ZM635.636 31.448L636.676 29.992C637.092 30.3867 637.598 30.7067 638.196 30.952C638.793 31.1973 639.412 31.32 640.052 31.32C641.054 31.32 641.886 31.0213 642.548 30.424C643.209 29.8267 643.609 29.0693 643.748 28.152H638.308V26.472H643.764C643.646 25.5547 643.252 24.8027 642.58 24.216C641.908 23.6187 641.07 23.32 640.068 23.32C638.894 23.32 637.817 23.7467 636.836 24.6L635.844 23.048C636.356 22.5253 636.99 22.1307 637.748 21.864C638.505 21.5867 639.3 21.448 640.132 21.448C641.87 21.448 643.273 22.0027 644.34 23.112C645.406 24.2213 645.94 25.6027 645.94 27.256C645.94 28.952 645.385 30.3653 644.276 31.496C643.166 32.6267 641.758 33.192 640.052 33.192C638.324 33.192 636.852 32.6107 635.636 31.448ZM646.552 31.24C647.405 31.1227 648.024 30.5573 648.408 29.544C648.803 28.52 649 26.92 649 24.744V21.64H656.024V33H653.96V23.416H650.968V24.776C650.968 27.5707 650.621 29.6507 649.928 31.016C649.235 32.3707 648.109 33.0747 646.552 33.128V31.24ZM658.782 33V21.64H665.582V23.416H660.846V26.392H664.67V28.168H660.846V31.224H665.838V33H658.782ZM667.892 33V21.64H669.956V26.264H671.428L674.1 21.64H676.34L673.124 27.048V27.08L676.532 33H674.196L671.428 28.04H669.956V33H667.892ZM680.671 33V23.416H676.943V21.64H686.447V23.416H682.719V33H680.671ZM688.064 33V21.64H692.448C693.514 21.64 694.384 21.9813 695.056 22.664C695.728 23.3467 696.064 24.2373 696.064 25.336C696.064 26.4347 695.728 27.336 695.056 28.04C694.384 28.7333 693.514 29.08 692.448 29.08H690.128V33H688.064ZM690.128 27.288H692.064C692.661 27.288 693.125 27.112 693.456 26.76C693.797 26.408 693.968 25.9333 693.968 25.336C693.968 24.7493 693.797 24.2853 693.456 23.944C693.125 23.592 692.672 23.416 692.096 23.416H690.128V27.288ZM697.188 27.24C697.188 25.608 697.748 24.2373 698.868 23.128C699.999 22.008 701.396 21.448 703.06 21.448C704.724 21.448 706.116 22.008 707.236 23.128C708.367 24.2373 708.932 25.608 708.932 27.24C708.932 28.9147 708.367 30.328 707.236 31.48C706.116 32.6213 704.724 33.192 703.06 33.192C701.396 33.192 699.999 32.6213 698.868 31.48C697.748 30.328 697.188 28.9147 697.188 27.24ZM699.316 27.24C699.316 28.392 699.679 29.3573 700.404 30.136C701.13 30.9147 702.015 31.304 703.06 31.304C704.106 31.304 704.991 30.9147 705.716 30.136C706.442 29.3573 706.804 28.392 706.804 27.24C706.804 26.1413 706.442 25.2187 705.716 24.472C704.991 23.7147 704.106 23.336 703.06 23.336C702.015 23.336 701.13 23.7147 700.404 24.472C699.679 25.2187 699.316 26.1413 699.316 27.24ZM711.017 33V21.64H713.081V26.456H718.281V21.64H720.329V33H718.281V28.232H713.081V33H711.017ZM723.079 33V21.64H725.143V26.456H730.343V21.64H732.391V33H730.343V28.232H725.143V33H723.079ZM734.47 27.24C734.47 25.608 735.03 24.2373 736.15 23.128C737.28 22.008 738.678 21.448 740.342 21.448C742.006 21.448 743.398 22.008 744.518 23.128C745.648 24.2373 746.214 25.608 746.214 27.24C746.214 28.9147 745.648 30.328 744.518 31.48C743.398 32.6213 742.006 33.192 740.342 33.192C738.678 33.192 737.28 32.6213 736.15 31.48C735.03 30.328 734.47 28.9147 734.47 27.24ZM736.598 27.24C736.598 28.392 736.96 29.3573 737.686 30.136C738.411 30.9147 739.296 31.304 740.342 31.304C741.387 31.304 742.272 30.9147 742.998 30.136C743.723 29.3573 744.086 28.392 744.086 27.24C744.086 26.1413 743.723 25.2187 742.998 24.472C742.272 23.7147 741.387 23.336 740.342 23.336C739.296 23.336 738.411 23.7147 737.686 24.472C736.96 25.2187 736.598 26.1413 736.598 27.24ZM754.89 20.536C754.378 20.9307 753.759 21.128 753.034 21.128C752.309 21.128 751.69 20.9307 751.178 20.536C750.666 20.1307 750.41 19.592 750.41 18.92V18.712H751.962V18.92C751.962 19.24 752.069 19.4907 752.282 19.672C752.495 19.8427 752.746 19.928 753.034 19.928C753.322 19.928 753.573 19.8427 753.786 19.672C754.01 19.4907 754.122 19.2347 754.122 18.904V18.712H755.658V18.92C755.658 19.592 755.402 20.1307 754.89 20.536ZM748.298 33V21.64H750.362V28.2L750.25 29.96H750.282C750.645 29.224 750.965 28.632 751.242 28.184L755.53 21.64H757.578V33H755.53V26.456L755.642 24.696H755.61C755.258 25.4213 754.943 26.008 754.666 26.456L750.346 33H748.298ZM764.345 33V21.64H771.321V23.416H766.409V26.04H768.681C769.737 26.04 770.59 26.36 771.241 27C771.902 27.6293 772.233 28.4773 772.233 29.544C772.233 30.568 771.907 31.4 771.257 32.04C770.606 32.68 769.763 33 768.729 33H764.345ZM766.409 31.224H768.361C768.926 31.224 769.363 31.0747 769.673 30.776C769.982 30.4773 770.137 30.0667 770.137 29.544C770.137 29.0213 769.977 28.6053 769.657 28.296C769.337 27.976 768.894 27.816 768.329 27.816H766.409V31.224ZM774.204 33V21.64H776.268V28.2L776.156 29.96H776.188C776.551 29.224 776.871 28.632 777.148 28.184L781.436 21.64H783.484V33H781.436V26.456L781.548 24.696H781.516C781.164 25.4213 780.849 26.008 780.572 26.456L776.252 33H774.204ZM786.251 33V21.64H793.227V23.416H788.315V26.04H790.587C791.643 26.04 792.496 26.36 793.147 27C793.808 27.6293 794.139 28.4773 794.139 29.544C794.139 30.568 793.814 31.4 793.163 32.04C792.512 32.68 791.67 33 790.635 33H786.251ZM788.315 31.224H790.267C790.832 31.224 791.27 31.0747 791.579 30.776C791.888 30.4773 792.043 30.0667 792.043 29.544C792.043 29.0213 791.883 28.6053 791.563 28.296C791.243 27.976 790.8 27.816 790.235 27.816H788.315V31.224ZM794.958 31.24C795.812 31.1227 796.43 30.5573 796.814 29.544C797.209 28.52 797.406 26.92 797.406 24.744V21.64H804.43V33H802.366V23.416H799.374V24.776C799.374 27.5707 799.028 29.6507 798.334 31.016C797.641 32.3707 796.516 33.0747 794.958 33.128V31.24ZM807.189 33V21.64H809.253V28.2L809.141 29.96H809.173C809.535 29.224 809.855 28.632 810.133 28.184L814.421 21.64H816.469V33H814.421V26.456L814.533 24.696H814.501C814.149 25.4213 813.834 26.008 813.557 26.456L809.237 33H807.189ZM818.563 27.24C818.563 25.608 819.123 24.2373 820.243 23.128C821.374 22.008 822.771 21.448 824.435 21.448C826.099 21.448 827.491 22.008 828.611 23.128C829.742 24.2373 830.307 25.608 830.307 27.24C830.307 28.9147 829.742 30.328 828.611 31.48C827.491 32.6213 826.099 33.192 824.435 33.192C822.771 33.192 821.374 32.6213 820.243 31.48C819.123 30.328 818.563 28.9147 818.563 27.24ZM820.691 27.24C820.691 28.392 821.054 29.3573 821.779 30.136C822.505 30.9147 823.39 31.304 824.435 31.304C825.481 31.304 826.366 30.9147 827.091 30.136C827.817 29.3573 828.179 28.392 828.179 27.24C828.179 26.1413 827.817 25.2187 827.091 24.472C826.366 23.7147 825.481 23.336 824.435 23.336C823.39 23.336 822.505 23.7147 821.779 24.472C821.054 25.2187 820.691 26.1413 820.691 27.24ZM834.561 33V23.416H830.833V21.64H840.337V23.416H836.609V33H834.561ZM841.954 33V21.64H848.754V23.416H844.018V26.392H847.842V28.168H844.018V31.224H849.01V33H841.954ZM851.064 33V21.64H853.128V26.264H854.6L857.272 21.64H859.512L856.296 27.048V27.08L859.704 33H857.368L854.6 28.04H853.128V33H851.064ZM861.267 33V21.64H868.067V23.416H863.331V26.392H867.155V28.168H863.331V31.224H868.323V33H861.267Z" fill="#005DFF"/>
<rect x="903" width="460" height="55" rx="27.5" fill="#F3F6FF"/>
<path d="M928.244 32.408L929.156 30.856C929.636 31.2293 930.063 31.416 930.436 31.416C930.937 31.416 931.316 31.0853 931.572 30.424L927.124 21.64H929.396L931.812 26.712L932.452 28.216H932.484C932.623 27.7147 932.777 27.2187 932.948 26.728L934.772 21.64H936.932L933.428 30.616C933.289 30.968 933.145 31.2773 932.996 31.544C932.847 31.8107 932.655 32.0773 932.42 32.344C932.185 32.6107 931.908 32.8187 931.588 32.968C931.268 33.1173 930.911 33.192 930.516 33.192C929.748 33.192 928.991 32.9307 928.244 32.408ZM939.595 31.224H944.107V23.416H941.067V24.264C941.067 27.3147 940.576 29.6347 939.595 31.224ZM936.315 31.224H937.467C938.566 29.56 939.115 27.192 939.115 24.12V21.64H946.171V31.224H947.435V35.24H945.595V33H938.219V35.24H936.315V31.224ZM948.563 27.24C948.563 25.608 949.123 24.2373 950.243 23.128C951.374 22.008 952.771 21.448 954.435 21.448C956.099 21.448 957.491 22.008 958.611 23.128C959.742 24.2373 960.307 25.608 960.307 27.24C960.307 28.9147 959.742 30.328 958.611 31.48C957.491 32.6213 956.099 33.192 954.435 33.192C952.771 33.192 951.374 32.6213 950.243 31.48C949.123 30.328 948.563 28.9147 948.563 27.24ZM950.691 27.24C950.691 28.392 951.054 29.3573 951.779 30.136C952.505 30.9147 953.39 31.304 954.435 31.304C955.481 31.304 956.366 30.9147 957.091 30.136C957.817 29.3573 958.179 28.392 958.179 27.24C958.179 26.1413 957.817 25.2187 957.091 24.472C956.366 23.7147 955.481 23.336 954.435 23.336C953.39 23.336 952.505 23.7147 951.779 24.472C951.054 25.2187 950.691 26.1413 950.691 27.24ZM961.736 27.272C961.736 25.608 962.285 24.2213 963.384 23.112C964.482 22.0027 965.88 21.448 967.576 21.448C969.304 21.448 970.701 21.9653 971.768 23L970.776 24.536C970.36 24.184 969.869 23.896 969.304 23.672C968.749 23.448 968.205 23.336 967.672 23.336C966.477 23.336 965.544 23.7093 964.872 24.456C964.2 25.2027 963.864 26.1307 963.864 27.24C963.864 28.36 964.205 29.32 964.888 30.12C965.57 30.9093 966.504 31.304 967.688 31.304C968.904 31.304 970.002 30.824 970.984 29.864L972.072 31.352C970.866 32.5787 969.378 33.192 967.608 33.192C965.848 33.192 964.429 32.632 963.352 31.512C962.274 30.392 961.736 28.9787 961.736 27.272ZM976.421 33V23.416H972.693V21.64H982.197V23.416H978.469V33H976.421ZM982.735 27.24C982.735 25.608 983.295 24.2373 984.415 23.128C985.546 22.008 986.943 21.448 988.607 21.448C990.271 21.448 991.663 22.008 992.783 23.128C993.914 24.2373 994.479 25.608 994.479 27.24C994.479 28.9147 993.914 30.328 992.783 31.48C991.663 32.6213 990.271 33.192 988.607 33.192C986.943 33.192 985.546 32.6213 984.415 31.48C983.295 30.328 982.735 28.9147 982.735 27.24ZM984.863 27.24C984.863 28.392 985.226 29.3573 985.951 30.136C986.677 30.9147 987.562 31.304 988.607 31.304C989.653 31.304 990.538 30.9147 991.263 30.136C991.989 29.3573 992.351 28.392 992.351 27.24C992.351 26.1413 991.989 25.2187 991.263 24.472C990.538 23.7147 989.653 23.336 988.607 23.336C987.562 23.336 986.677 23.7147 985.951 24.472C985.226 25.2187 984.863 26.1413 984.863 27.24ZM996.564 33V21.64H1000.61C1001.67 21.64 1002.52 21.9013 1003.16 22.424C1003.81 22.936 1004.13 23.6507 1004.13 24.568C1004.13 25.1013 1004.01 25.5813 1003.76 26.008C1003.52 26.4347 1003.18 26.7653 1002.76 27V27.032C1003.35 27.2027 1003.81 27.5387 1004.12 28.04C1004.44 28.5413 1004.6 29.096 1004.6 29.704C1004.6 30.7813 1004.22 31.6027 1003.48 32.168C1002.73 32.7227 1001.8 33 1000.68 33H996.564ZM998.628 26.28H1000.63C1001.06 26.28 1001.41 26.1467 1001.65 25.88C1001.91 25.6027 1002.04 25.2507 1002.04 24.824C1002.04 24.408 1001.91 24.072 1001.65 23.816C1001.41 23.5493 1001.05 23.416 1000.6 23.416H998.628V26.28ZM998.628 31.224H1000.84C1001.35 31.224 1001.75 31.0747 1002.04 30.776C1002.33 30.4667 1002.48 30.0667 1002.48 29.576C1002.48 29.096 1002.33 28.7067 1002.04 28.408C1001.75 28.0987 1001.35 27.944 1000.84 27.944H998.628V31.224ZM1006.69 33V21.64H1013.49V23.416H1008.75V26.392H1012.58V28.168H1008.75V31.224H1013.74V33H1006.69ZM1015.8 33V21.64H1020.18C1021.25 21.64 1022.12 21.9813 1022.79 22.664C1023.46 23.3467 1023.8 24.2373 1023.8 25.336C1023.8 26.4347 1023.46 27.336 1022.79 28.04C1022.12 28.7333 1021.25 29.08 1020.18 29.08H1017.86V33H1015.8ZM1017.86 27.288H1019.8C1020.4 27.288 1020.86 27.112 1021.19 26.76C1021.53 26.408 1021.7 25.9333 1021.7 25.336C1021.7 24.7493 1021.53 24.2853 1021.19 23.944C1020.86 23.592 1020.41 23.416 1019.83 23.416H1017.86V27.288ZM1025.59 33V21.64H1032.39V23.416H1027.66V26.392H1031.48V28.168H1027.66V31.224H1032.65V33H1025.59ZM1034.7 33V21.64H1036.77V26.456H1041.97V21.64H1044.02V33H1041.97V28.232H1036.77V33H1034.7ZM1046.77 33V21.64H1048.83V28.2L1048.72 29.96H1048.75C1049.11 29.224 1049.43 28.632 1049.71 28.184L1054 21.64H1056.05V33H1054V26.456L1054.11 24.696H1054.08C1053.73 25.4213 1053.41 26.008 1053.13 26.456L1048.81 33H1046.77ZM1058.81 33V21.64H1065.61V23.416H1060.88V26.392H1064.7V28.168H1060.88V31.224H1065.87V33H1058.81ZM1071.25 27.24C1071.25 25.608 1071.81 24.2373 1072.93 23.128C1074.06 22.008 1075.46 21.448 1077.12 21.448C1078.79 21.448 1080.18 22.008 1081.3 23.128C1082.43 24.2373 1082.99 25.608 1082.99 27.24C1082.99 28.9147 1082.43 30.328 1081.3 31.48C1080.18 32.6213 1078.79 33.192 1077.12 33.192C1075.46 33.192 1074.06 32.6213 1072.93 31.48C1071.81 30.328 1071.25 28.9147 1071.25 27.24ZM1073.38 27.24C1073.38 28.392 1073.74 29.3573 1074.47 30.136C1075.19 30.9147 1076.08 31.304 1077.12 31.304C1078.17 31.304 1079.05 30.9147 1079.78 30.136C1080.5 29.3573 1080.87 28.392 1080.87 27.24C1080.87 26.1413 1080.5 25.2187 1079.78 24.472C1079.05 23.7147 1078.17 23.336 1077.12 23.336C1076.08 23.336 1075.19 23.7147 1074.47 24.472C1073.74 25.2187 1073.38 26.1413 1073.38 27.24ZM1089.08 33V21.64H1098.28V33H1096.22V23.416H1091.14V33H1089.08ZM1100.36 27.24C1100.36 25.608 1100.92 24.2373 1102.04 23.128C1103.17 22.008 1104.57 21.448 1106.23 21.448C1107.9 21.448 1109.29 22.008 1110.41 23.128C1111.54 24.2373 1112.1 25.608 1112.1 27.24C1112.1 28.9147 1111.54 30.328 1110.41 31.48C1109.29 32.6213 1107.9 33.192 1106.23 33.192C1104.57 33.192 1103.17 32.6213 1102.04 31.48C1100.92 30.328 1100.36 28.9147 1100.36 27.24ZM1102.49 27.24C1102.49 28.392 1102.85 29.3573 1103.58 30.136C1104.3 30.9147 1105.19 31.304 1106.23 31.304C1107.28 31.304 1108.16 30.9147 1108.89 30.136C1109.61 29.3573 1109.98 28.392 1109.98 27.24C1109.98 26.1413 1109.61 25.2187 1108.89 24.472C1108.16 23.7147 1107.28 23.336 1106.23 23.336C1105.19 23.336 1104.3 23.7147 1103.58 24.472C1102.85 25.2187 1102.49 26.1413 1102.49 27.24ZM1114.19 33V21.64H1118.24C1119.29 21.64 1120.14 21.9013 1120.78 22.424C1121.43 22.936 1121.76 23.6507 1121.76 24.568C1121.76 25.1013 1121.63 25.5813 1121.39 26.008C1121.14 26.4347 1120.81 26.7653 1120.38 27V27.032C1120.98 27.2027 1121.43 27.5387 1121.74 28.04C1122.06 28.5413 1122.22 29.096 1122.22 29.704C1122.22 30.7813 1121.85 31.6027 1121.1 32.168C1120.35 32.7227 1119.42 33 1118.3 33H1114.19ZM1116.25 26.28H1118.25C1118.69 26.28 1119.03 26.1467 1119.28 25.88C1119.53 25.6027 1119.66 25.2507 1119.66 24.824C1119.66 24.408 1119.53 24.072 1119.28 23.816C1119.03 23.5493 1118.68 23.416 1118.22 23.416H1116.25V26.28ZM1116.25 31.224H1118.46C1118.97 31.224 1119.37 31.0747 1119.66 30.776C1119.96 30.4667 1120.11 30.0667 1120.11 29.576C1120.11 29.096 1119.96 28.7067 1119.66 28.408C1119.37 28.0987 1118.97 27.944 1118.46 27.944H1116.25V31.224ZM1133.51 33V21.64H1135.56V33H1133.51ZM1124.31 33V21.64H1126.38V25.624H1128.49C1129.55 25.624 1130.4 25.9653 1131.05 26.648C1131.71 27.32 1132.04 28.216 1132.04 29.336C1132.04 30.424 1131.72 31.3093 1131.07 31.992C1130.41 32.664 1129.57 33 1128.54 33H1124.31ZM1126.38 31.224H1128.17C1128.73 31.224 1129.17 31.0587 1129.48 30.728C1129.79 30.3867 1129.95 29.9227 1129.95 29.336C1129.95 28.7493 1129.79 28.28 1129.47 27.928C1129.15 27.576 1128.7 27.4 1128.14 27.4H1126.38V31.224ZM1138.33 33V21.64H1140.39V31.224H1144.06V21.64H1146.12V31.224H1149.79V21.64H1151.83V33H1138.33ZM1154.59 33V21.64H1161.39V23.416H1156.66V26.392H1160.48V28.168H1156.66V31.224H1161.65V33H1154.59ZM1163.7 33V21.64H1165.77V26.456H1170.97V21.64H1173.02V33H1170.97V28.232H1165.77V33H1163.7ZM1175.77 33V21.64H1177.83V28.2L1177.72 29.96H1177.75C1178.11 29.224 1178.43 28.632 1178.71 28.184L1183 21.64H1185.05V33H1183V26.456L1183.11 24.696H1183.08C1182.73 25.4213 1182.41 26.008 1182.13 26.456L1177.81 33H1175.77ZM1187.81 33V21.64H1189.88V28.2L1189.77 29.96H1189.8C1190.16 29.224 1190.48 28.632 1190.76 28.184L1195.05 21.64H1197.09V33H1195.05V26.456L1195.16 24.696H1195.13C1194.77 25.4213 1194.46 26.008 1194.18 26.456L1189.86 33H1187.81ZM1203.86 33V21.64H1205.92V26.264H1207.4L1210.07 21.64H1212.31L1209.09 27.048V27.08L1212.5 33H1210.16L1207.4 28.04H1205.92V33H1203.86ZM1214.06 33V21.64H1218.11C1219.17 21.64 1220.02 21.9013 1220.66 22.424C1221.31 22.936 1221.63 23.6507 1221.63 24.568C1221.63 25.1013 1221.51 25.5813 1221.26 26.008C1221.02 26.4347 1220.68 26.7653 1220.26 27V27.032C1220.85 27.2027 1221.31 27.5387 1221.62 28.04C1221.94 28.5413 1222.1 29.096 1222.1 29.704C1222.1 30.7813 1221.72 31.6027 1220.98 32.168C1220.23 32.7227 1219.3 33 1218.18 33H1214.06ZM1216.13 26.28H1218.13C1218.56 26.28 1218.91 26.1467 1219.15 25.88C1219.41 25.6027 1219.54 25.2507 1219.54 24.824C1219.54 24.408 1219.41 24.072 1219.15 23.816C1218.91 23.5493 1218.55 23.416 1218.1 23.416H1216.13V26.28ZM1216.13 31.224H1218.34C1218.85 31.224 1219.25 31.0747 1219.54 30.776C1219.83 30.4667 1219.98 30.0667 1219.98 29.576C1219.98 29.096 1219.83 28.7067 1219.54 28.408C1219.25 28.0987 1218.85 27.944 1218.34 27.944H1216.13V31.224ZM1222.82 33L1226.8 21.64H1228.98L1232.96 33H1230.85L1229.87 30.088H1225.89L1224.93 33H1222.82ZM1226.4 28.408H1229.36L1228.35 25.368L1227.9 23.608H1227.87C1227.7 24.3547 1227.55 24.9413 1227.42 25.368L1226.4 28.408ZM1233.32 31.24C1234.17 31.1227 1234.79 30.5573 1235.17 29.544C1235.57 28.52 1235.77 26.92 1235.77 24.744V21.64H1242.79V33H1240.73V23.416H1237.73V24.776C1237.73 27.5707 1237.39 29.6507 1236.69 31.016C1236 32.3707 1234.88 33.0747 1233.32 33.128V31.24ZM1245.55 33V21.64H1247.61V28.2L1247.5 29.96H1247.53C1247.89 29.224 1248.21 28.632 1248.49 28.184L1252.78 21.64H1254.83V33H1252.78V26.456L1252.89 24.696H1252.86C1252.51 25.4213 1252.19 26.008 1251.92 26.456L1247.6 33H1245.55ZM1256.75 26.952C1256.75 25.5653 1257.23 24.4347 1258.19 23.56C1259.16 22.6853 1260.41 22.248 1261.95 22.248V21H1264.01V22.248C1265.55 22.248 1266.79 22.6853 1267.75 23.56C1268.73 24.4347 1269.21 25.5653 1269.21 26.952C1269.21 28.3707 1268.73 29.528 1267.77 30.424C1266.81 31.3093 1265.56 31.752 1264.01 31.752V33.192H1261.95V31.752C1260.41 31.752 1259.16 31.304 1258.19 30.408C1257.23 29.512 1256.75 28.36 1256.75 26.952ZM1264.01 30.024C1264.93 30.024 1265.67 29.7413 1266.25 29.176C1266.83 28.6 1267.11 27.8587 1267.11 26.952C1267.11 26.0667 1266.83 25.352 1266.25 24.808C1265.67 24.2533 1264.93 23.976 1264.01 23.976V30.024ZM1258.86 26.952C1258.86 27.8587 1259.14 28.6 1259.71 29.176C1260.28 29.7413 1261.03 30.024 1261.95 30.024V23.976C1261.03 23.976 1260.28 24.2533 1259.71 24.808C1259.14 25.352 1258.86 26.0667 1258.86 26.952ZM1271.11 33V21.64H1273.17V28.2L1273.06 29.96H1273.09C1273.46 29.224 1273.78 28.632 1274.05 28.184L1278.34 21.64H1280.39V33H1278.34V26.456L1278.45 24.696H1278.42C1278.07 25.4213 1277.76 26.008 1277.48 26.456L1273.16 33H1271.11ZM1283.16 33V21.64H1285.22V26.264H1286.69L1289.37 21.64H1291.61L1288.39 27.048V27.08L1291.8 33H1289.46L1286.69 28.04H1285.22V33H1283.16ZM1292.11 33L1296.1 21.64H1298.27L1302.26 33H1300.14L1299.17 30.088H1295.18L1294.22 33H1292.11ZM1295.7 28.408H1298.66L1297.65 25.368L1297.2 23.608H1297.17C1297 24.3547 1296.85 24.9413 1296.72 25.368L1295.7 28.408ZM1303.77 33V21.64H1305.83V31.224H1310.74V21.64H1312.81V31.224H1314.15V35.24H1312.31V33H1303.77ZM1316.11 33V21.64H1318.17V28.2L1318.06 29.96H1318.09C1318.46 29.224 1318.78 28.632 1319.05 28.184L1323.34 21.64H1325.39V33H1323.34V26.456L1323.45 24.696H1323.42C1323.07 25.4213 1322.76 26.008 1322.48 26.456L1318.16 33H1316.11ZM1328.16 33V21.64H1330.22V28.2L1330.11 29.96H1330.14C1330.5 29.224 1330.82 28.632 1331.1 28.184L1335.39 21.64H1337.44V33H1335.39V26.456L1335.5 24.696H1335.47C1335.12 25.4213 1334.8 26.008 1334.53 26.456L1330.21 33H1328.16Z" fill="#666666"/>
<rect x="1373" width="177" height="55" rx="27.5" fill="#F3F6FF"/>
<path d="M1398.84 33V21.64H1400.91V26.456H1406.11V21.64H1408.16V33H1406.11V28.232H1400.91V33H1398.84ZM1410.24 27.24C1410.24 25.608 1410.8 24.2373 1411.92 23.128C1413.05 22.008 1414.44 21.448 1416.11 21.448C1417.77 21.448 1419.16 22.008 1420.28 23.128C1421.41 24.2373 1421.98 25.608 1421.98 27.24C1421.98 28.9147 1421.41 30.328 1420.28 31.48C1419.16 32.6213 1417.77 33.192 1416.11 33.192C1414.44 33.192 1413.05 32.6213 1411.92 31.48C1410.8 30.328 1410.24 28.9147 1410.24 27.24ZM1412.36 27.24C1412.36 28.392 1412.73 29.3573 1413.45 30.136C1414.18 30.9147 1415.06 31.304 1416.11 31.304C1417.15 31.304 1418.04 30.9147 1418.76 30.136C1419.49 29.3573 1419.85 28.392 1419.85 27.24C1419.85 26.1413 1419.49 25.2187 1418.76 24.472C1418.04 23.7147 1417.15 23.336 1416.11 23.336C1415.06 23.336 1414.18 23.7147 1413.45 24.472C1412.73 25.2187 1412.36 26.1413 1412.36 27.24ZM1424.06 33V21.64H1428.11C1429.17 21.64 1430.02 21.9013 1430.66 22.424C1431.31 22.936 1431.63 23.6507 1431.63 24.568C1431.63 25.1013 1431.51 25.5813 1431.26 26.008C1431.02 26.4347 1430.68 26.7653 1430.26 27V27.032C1430.85 27.2027 1431.31 27.5387 1431.62 28.04C1431.94 28.5413 1432.1 29.096 1432.1 29.704C1432.1 30.7813 1431.72 31.6027 1430.98 32.168C1430.23 32.7227 1429.3 33 1428.18 33H1424.06ZM1426.13 26.28H1428.13C1428.56 26.28 1428.91 26.1467 1429.15 25.88C1429.41 25.6027 1429.54 25.2507 1429.54 24.824C1429.54 24.408 1429.41 24.072 1429.15 23.816C1428.91 23.5493 1428.55 23.416 1428.1 23.416H1426.13V26.28ZM1426.13 31.224H1428.34C1428.85 31.224 1429.25 31.0747 1429.54 30.776C1429.83 30.4667 1429.98 30.0667 1429.98 29.576C1429.98 29.096 1429.83 28.7067 1429.54 28.408C1429.25 28.0987 1428.85 27.944 1428.34 27.944H1426.13V31.224ZM1443.39 33V21.64H1445.44V33H1443.39ZM1434.19 33V21.64H1436.25V25.624H1438.36C1439.42 25.624 1440.27 25.9653 1440.92 26.648C1441.59 27.32 1441.92 28.216 1441.92 29.336C1441.92 30.424 1441.59 31.3093 1440.94 31.992C1440.29 32.664 1439.45 33 1438.41 33H1434.19ZM1436.25 31.224H1438.04C1438.61 31.224 1439.05 31.0587 1439.36 30.728C1439.67 30.3867 1439.82 29.9227 1439.82 29.336C1439.82 28.7493 1439.66 28.28 1439.34 27.928C1439.02 27.576 1438.58 27.4 1438.01 27.4H1436.25V31.224ZM1448.2 33V21.64H1455V23.416H1450.27V26.392H1454.09V28.168H1450.27V31.224H1455.26V33H1448.2ZM1460.29 31.576L1461.41 30.2C1461.72 30.5307 1462.1 30.808 1462.56 31.032C1463.02 31.256 1463.49 31.368 1463.97 31.368C1464.59 31.368 1465.08 31.2133 1465.44 30.904C1465.8 30.5947 1465.99 30.168 1465.99 29.624C1465.99 29.1333 1465.82 28.7493 1465.49 28.472C1465.17 28.184 1464.73 28.04 1464.18 28.04H1462.79V26.376H1463.91C1464.42 26.376 1464.84 26.2267 1465.17 25.928C1465.5 25.6293 1465.67 25.256 1465.67 24.808C1465.67 24.3493 1465.52 23.976 1465.22 23.688C1464.92 23.3893 1464.49 23.24 1463.92 23.24C1463.06 23.24 1462.24 23.56 1461.46 24.2L1460.63 22.696C1461.63 21.864 1462.84 21.448 1464.27 21.448C1465.24 21.448 1466.07 21.7253 1466.74 22.28C1467.42 22.8347 1467.76 23.592 1467.76 24.552C1467.76 25.672 1467.24 26.5147 1466.19 27.08V27.112C1466.78 27.2933 1467.24 27.6133 1467.59 28.072C1467.93 28.5307 1468.1 29.0907 1468.1 29.752C1468.1 30.7973 1467.72 31.6347 1466.96 32.264C1466.21 32.8827 1465.28 33.192 1464.16 33.192C1463.44 33.192 1462.73 33.0533 1462.03 32.776C1461.35 32.488 1460.77 32.088 1460.29 31.576ZM1470.19 33V21.64H1472.25V26.456H1477.45V21.64H1479.5V33H1477.45V28.232H1472.25V33H1470.19ZM1481 33L1484.99 21.64H1487.16L1491.15 33H1489.04L1488.06 30.088H1484.08L1483.12 33H1481ZM1484.59 28.408H1487.55L1486.54 25.368L1486.09 23.608H1486.06C1485.89 24.3547 1485.74 24.9413 1485.61 25.368L1484.59 28.408ZM1492.66 33V21.64H1494.72V26.456H1499.92V21.64H1501.97V33H1499.92V28.232H1494.72V33H1492.66ZM1504.72 33V21.64H1506.78V28.2L1506.67 29.96H1506.7C1507.07 29.224 1507.39 28.632 1507.66 28.184L1511.95 21.64H1514V33H1511.95V26.456L1512.06 24.696H1512.03C1511.68 25.4213 1511.37 26.008 1511.09 26.456L1506.77 33H1504.72ZM1515.66 33L1518.06 29L1518.43 28.408V28.376C1517.76 28.0773 1517.25 27.64 1516.91 27.064C1516.58 26.488 1516.41 25.8267 1516.41 25.08C1516.41 24.312 1516.59 23.6613 1516.93 23.128C1517.28 22.584 1517.74 22.1893 1518.32 21.944C1518.79 21.7413 1519.51 21.64 1520.48 21.64H1524.16V33H1522.09V28.76H1520.43L1517.97 33H1515.66ZM1520.3 27.032H1522.09V23.416H1520.64C1520 23.416 1519.52 23.512 1519.21 23.704C1518.75 23.992 1518.51 24.4773 1518.51 25.16C1518.51 25.7573 1518.67 26.2213 1518.99 26.552C1519.31 26.872 1519.75 27.032 1520.3 27.032Z" fill="#005DFF"/>
<rect x="1560" width="148" height="55" rx="27.5" fill="#F3F6FF"/>
<path d="M1585.71 33V21.64H1592.69V23.416H1587.78V26.04H1590.05C1591.1 26.04 1591.96 26.36 1592.61 27C1593.27 27.6293 1593.6 28.4773 1593.6 29.544C1593.6 30.568 1593.27 31.4 1592.62 32.04C1591.97 32.68 1591.13 33 1590.1 33H1585.71ZM1587.78 31.224H1589.73C1590.29 31.224 1590.73 31.0747 1591.04 30.776C1591.35 30.4773 1591.5 30.0667 1591.5 29.544C1591.5 29.0213 1591.34 28.6053 1591.02 28.296C1590.7 27.976 1590.26 27.816 1589.7 27.816H1587.78V31.224ZM1594.23 33L1598.21 21.64H1600.39L1604.37 33H1602.26L1601.29 30.088H1597.3L1596.34 33H1594.23ZM1597.81 28.408H1600.77L1599.77 25.368L1599.32 23.608H1599.29C1599.11 24.3547 1598.97 24.9413 1598.84 25.368L1597.81 28.408ZM1604.73 31.24C1605.59 31.1227 1606.2 30.5573 1606.59 29.544C1606.98 28.52 1607.18 26.92 1607.18 24.744V21.64H1614.2V33H1612.14V23.416H1609.15V24.776C1609.15 27.5707 1608.8 29.6507 1608.11 31.016C1607.41 32.3707 1606.29 33.0747 1604.73 33.128V31.24ZM1615.81 31.24C1616.66 31.1227 1617.28 30.5573 1617.67 29.544C1618.06 28.52 1618.26 26.92 1618.26 24.744V21.64H1625.28V33H1623.22V23.416H1620.23V24.776C1620.23 27.5707 1619.88 29.6507 1619.19 31.016C1618.49 32.3707 1617.37 33.0747 1615.81 33.128V31.24ZM1637.24 33V21.64H1639.29V33H1637.24ZM1628.04 33V21.64H1630.1V25.624H1632.22C1633.27 25.624 1634.13 25.9653 1634.78 26.648C1635.44 27.32 1635.77 28.216 1635.77 29.336C1635.77 30.424 1635.44 31.3093 1634.79 31.992C1634.14 32.664 1633.3 33 1632.26 33H1628.04ZM1630.1 31.224H1631.9C1632.46 31.224 1632.9 31.0587 1633.21 30.728C1633.52 30.3867 1633.67 29.9227 1633.67 29.336C1633.67 28.7493 1633.51 28.28 1633.19 27.928C1632.87 27.576 1632.43 27.4 1631.86 27.4H1630.1V31.224ZM1646.06 33V21.64H1648.12V26.456H1653.32V21.64H1655.37V33H1653.32V28.232H1648.12V33H1646.06ZM1657.69 33L1658.61 21.64H1660.81L1663.05 27.256L1663.61 28.92H1663.64C1663.84 28.2587 1664.03 27.704 1664.2 27.256L1666.44 21.64H1668.63L1669.56 33H1667.49L1667.03 26.648C1667.01 26.424 1667 26.168 1667 25.88C1667 25.5813 1667 25.3413 1667.01 25.16V24.888H1666.98C1666.74 25.624 1666.53 26.2107 1666.36 26.648L1664.52 31.048H1662.73L1660.89 26.648L1660.26 24.872H1660.23C1660.26 25.5547 1660.26 26.1467 1660.21 26.648L1659.75 33H1657.69ZM1671.21 27.24C1671.21 25.608 1671.77 24.2373 1672.89 23.128C1674.02 22.008 1675.42 21.448 1677.08 21.448C1678.75 21.448 1680.14 22.008 1681.26 23.128C1682.39 24.2373 1682.96 25.608 1682.96 27.24C1682.96 28.9147 1682.39 30.328 1681.26 31.48C1680.14 32.6213 1678.75 33.192 1677.08 33.192C1675.42 33.192 1674.02 32.6213 1672.89 31.48C1671.77 30.328 1671.21 28.9147 1671.21 27.24ZM1673.34 27.24C1673.34 28.392 1673.7 29.3573 1674.43 30.136C1675.15 30.9147 1676.04 31.304 1677.08 31.304C1678.13 31.304 1679.01 30.9147 1679.74 30.136C1680.47 29.3573 1680.83 28.392 1680.83 27.24C1680.83 26.1413 1680.47 25.2187 1679.74 24.472C1679.01 23.7147 1678.13 23.336 1677.08 23.336C1676.04 23.336 1675.15 23.7147 1674.43 24.472C1673.7 25.2187 1673.34 26.1413 1673.34 27.24Z" fill="#666666"/>
</svg>
